<svg version="1.2" xmlns="http://www.w3.org/2000/svg" viewBox="0 0 3200 1800" width="3200" height="1800"><style>.a{opacity:1;fill:#fff}</style><path fill-rule="evenodd" class="a" d="m2523.8 975.8c-0.8 0.1-1.9 1.3-2.5 2.5-0.6 1.2-5.4 19.8-10.7 41.2-5.3 21.5-10.3 41.5-11.1 44.5-0.8 3-7.1 28.5-14 56.5-6.9 28-13.9 56-15.5 62-1.6 6-3.5 12.6-4.4 14.5-0.8 1.9-2.4 4.5-3.5 5.8-1.2 1.2-2.8 2.2-3.6 2.2-0.8 0-2.9-1.2-4.7-2.7-1.7-1.6-4.2-5.3-5.6-8.3-1.3-3-3.4-9.8-4.7-15-1.3-5.2-2.8-12-3.5-15-0.6-3-2-9.5-3.1-14.5-1-5-2.5-11.2-3.3-14-0.7-2.7-2.7-7.9-4.4-11.5-2.1-4.6-5-8.3-9.6-12.7-3.6-3.5-7.7-6.6-9.1-7-1.4-0.5-2.8-1.4-3-2-0.3-0.8 2.4-2.6 7.2-4.9 4.3-1.9 9.8-5.2 12.3-7.2 2.5-2 5.6-4.8 7-6.2 1.4-1.4 4.1-4.5 6.1-7 2-2.5 4.7-6.5 6.1-9 1.3-2.5 3.5-7.7 4.7-11.5 2-6.2 2.2-8.5 1.8-20-0.4-10-0.9-14.2-2.5-18-1.1-2.7-3.3-7.2-4.8-10-1.5-2.7-5.3-7.5-8.5-10.5-3.1-3-8.3-7.1-11.5-9-3.2-1.9-9.5-4.8-13.9-6.5l-8-2.9c-65.9-0.6-86-0.5-87.3-0.2-1.7 0.5-2.2 1.3-2.2 3.6 0 2.5 0.5 3.1 3.2 3.9 1.8 0.5 6.4 1.7 10.1 2.7 4.7 1.3 7.3 2.6 8.3 4.2 1.2 1.8 1.4 18.1 1.4 103.7 0 79.2-0.3 102.1-1.3 104.1-0.9 2-2.7 3-8.2 4.6-6.9 2-7.1 2-12 0.2-3.4-1.3-5.7-3-7.3-5.4-1.2-1.9-2.7-5.1-3.2-7-0.5-1.9-1.9-7.3-3-12-1.2-4.7-3-11.9-4.1-16-1-4.1-2.7-11.2-3.9-15.7-1.1-4.6-2.9-12-4.1-16.5-1.1-4.6-2.9-11.7-3.9-15.8-1-4.1-2.8-11.1-3.9-15.5-1.1-4.4-2.9-11.8-4.1-16.5-1.2-4.7-3-11.9-4-16-1-4.1-2.8-11.3-4-16-1.2-4.7-3-11.9-4-16-1-4.1-2.8-11.3-4-16-1.2-4.7-3-12.1-4.1-16.5-1.1-4.4-2.9-11.6-4-16-1.1-4.4-2.6-9.1-3.2-10.5q-1.3-2.5-4.2-2.8c-1.7-0.2-3.5 0.2-4.1 1-0.6 0.7-2 5-3.2 9.6-1.2 4.5-3.1 11.7-4.1 16-1.1 4.2-2.9 11.3-4 15.7-1.1 4.4-4.8 19.3-8.1 33-3.4 13.8-7 28.4-8 32.5-1 4.1-2.8 11.1-3.9 15.5-1.1 4.4-2.9 11.6-4 16-1.1 4.4-5.9 23.8-10.7 43-5.5 22.4-9.6 36.8-11.3 40-1.9 3.8-3.7 5.6-7.1 7.3-2.5 1.2-5.7 2.2-7.3 2.2-1.5 0-3.6 0.9-4.7 2-1.1 1.1-2 2.3-2 2.8 0 0.4 0.5 1.4 1 2.2 0.8 1.3 5 1.5 26.5 1.8 15.5 0.1 26.3-0.2 27.5-0.8 1.1-0.5 2-1.9 2-3 0-1.1-1-2.7-2.3-3.5-1.2-0.8-3.3-1.5-4.7-1.5-1.4 0-4.3-0.6-6.4-1.3-2.1-0.6-4.7-2.3-5.8-3.7-1.2-1.7-1.9-4.1-1.8-7.2 0-2.7 1.6-11 3.6-18.5 2-7.6 4-15.4 4.4-17.3 0.4-1.9 1.7-7.1 2.9-11.5 1.2-4.6 3.1-9 4.4-10.3 2.2-2.2 2.6-2.3 24.4-2.2h22.3c3.5 4.3 5.1 7.8 5.8 10.5 0.7 2.8 2.1 8.4 3.2 12.5 1 4.1 2.8 11.6 4 16.5 1.2 5 3.1 12.6 4.2 17 1.1 4.4 1.7 8.9 1.5 10-0.3 1.1-2.1 2.8-4.1 3.8-2 0.9-5.4 1.7-7.6 1.7-2.2 0-4.9 0.5-6 1-1.2 0.6-2 2-2 3.5 0 1.5 0.8 2.9 2 3.5 1.3 0.6 24.3 0.9 64.5 0.8 54.4-0.3 62.7-0.5 63.5-1.8 0.5-0.8 1-1.9 1-2.5 0-0.5-0.4-1.6-0.8-2.3-0.4-0.7-4.3-2-8.7-2.8-4.4-0.7-10.3-2.1-13-2.9-3-0.8-5.6-2.4-6.5-3.7-1.3-1.9-1.5-9.3-1.8-47l-0.2-44.8 6.3-6.5c13.7 1.2 20 2.4 22.9 3.6 2.9 1.1 6.1 2.8 7.2 3.7 1 0.9 2.9 3.5 4.1 5.7 1.3 2.2 3.5 7.2 4.8 11 1.4 3.8 3.4 11.3 4.6 16.5 1.1 5.2 2.9 14 4.1 19.5 1.1 5.5 3 14.3 4.2 19.5 1.2 5.2 3.6 12.7 5.4 16.5 1.8 3.8 5.2 9 7.6 11.5 2.3 2.4 6.8 5.5 9.8 6.9 3.4 1.6 7.9 2.7 12 2.9 4.1 0.3 8.6-0.1 12.2-1.2 3.9-1.1 9.8-1.6 17.8-1.6 6.6 0 13.1-0.4 14.5-1 1.5-0.6 2.5-1.8 2.5-3 0-1.1-1-2.7-2.3-3.5-1.2-0.8-3.8-1.5-5.7-1.5-1.9 0-5.4-0.9-7.8-2-3.7-1.8-4.3-2.5-5-6.2-0.4-2.4-0.4-6.5 0-9.3 0.5-2.7 1.8-8.6 2.9-13 1.1-4.4 3-11.6 4.1-16 1-4.4 2.9-11.2 4-15 1.2-3.9 3-7.8 4.2-8.7 1.8-1.5 4.8-1.7 24.1-1.8 21.6-0.1 22 0 24.1 2.2 1.1 1.3 3 5.9 4.2 10.3 1.1 4.4 3 11.6 4.1 16 1.1 4.4 3.4 13.6 5.1 20.5 1.6 6.9 3 14 3 15.8 0 2.2-0.7 3.7-2.3 4.7-1.2 0.9-4.9 1.9-8.2 2.3-3.3 0.4-6.6 1.1-7.3 1.5-0.6 0.4-1.2 1.8-1.2 3.2 0 1.5 0.8 2.9 2 3.5 1.2 0.6 13.7 1 31 1 15.9 0 29.7-0.2 30.5-0.5 1-0.3 1.5-1.8 1.5-4 0-2.2-0.5-3.7-1.5-4-0.8-0.3-2.4-0.5-3.5-0.5-1.1 0-4.1-0.9-6.8-2-2.6-1.1-5.4-3.2-6.4-4.7-0.9-1.6-2.9-7.1-4.3-12.3-1.4-5.2-3.5-13-4.5-17.2-1.1-4.3-2.9-11.4-4-15.8-1.1-4.4-2.9-11.7-4-16.2-1.2-4.6-3-11.8-4-16-1.1-4.3-2.9-11.4-4-15.8-1.1-4.4-2.9-11.6-4-16-1.1-4.4-2.9-11.5-4-15.7-1-4.3-6.7-27.1-12.5-50.8-5.8-23.6-11.1-44.3-11.9-46-0.7-1.6-2.2-3.2-3.3-3.5-1.2-0.3-2.7-0.4-3.5-0.2zm-153.8 13.7c2.5-0.8 6.2-1.4 8.2-1.4 2.1-0.1 7.5 0.6 12 1.5 4.6 1 10.5 2.9 13.3 4.3 2.7 1.4 7 4.4 9.5 6.7 2.5 2.2 6 7 7.9 10.5 1.9 3.5 4.1 9.1 4.8 12.4 0.8 3.3 1.5 10 1.5 15 0.1 5-0.5 12.4-1.2 16.5-0.8 4.8-2.7 10.5-5.4 15.9-2.8 5.8-5.5 9.7-8.6 12.4-2.5 2.2-7 5.2-10 6.6-5 2.4-6.6 2.6-18 2.6-11.9 0-12.7-0.1-16-2.6-1.9-1.5-4.2-4.2-5-6-1.3-2.9-1.5-10.2-1.5-45.4 0-40.4 0.1-42.1 2-44.8 1.3-1.8 3.7-3.4 6.5-4.2zm149.3 41l1.2 4.5c0.7 2.5 2.2 8.5 3.3 13.5 1.2 5 4 16.7 6.2 26 2.3 9.3 5 20.8 6.1 25.5 1.1 4.7 2.7 11.2 3.5 14.5 0.8 3.3 1.3 6.8 1 7.8-0.6 1.5-2.5 1.7-21.6 1.7-15.8 0-21.1-0.3-21.6-1.2-0.3-0.7 3.1-16.1 7.6-34.3 4.5-18.2 9-35.9 10-39.5 0.9-3.6 2.3-9.2 3-12.5zm-279.4 2c0.3-0.5 0.7-0.1 0.9 1 0.1 1.1 1.1 5.6 2.2 10 1 4.4 2.9 12 4 17 1.2 5 3 12.4 4 16.5 1 4.1 2.8 11.4 3.9 16.3 1.2 4.8 3 12.4 4.2 17 1.1 4.5 1.9 9.3 1.4 13.2l-20.5 0.3c-17.1 0.2-20.7 0-21.5-1.2-0.7-1-0.6-3.3 0.3-7.3 0.8-3.2 2.2-9.3 3.3-13.5 1-4.3 2.8-11.5 4-16 1.2-4.6 3-11.8 4-16 1-4.3 2.8-11.5 4-16 1.1-4.6 2.8-11 3.7-14.3 0.8-3.3 1.8-6.5 2.1-7zm-1317.4-449.6c-6 0.5-14.6 1.4-19 2-4.4 0.7-11.6 1.9-16 2.7-4.4 0.9-15 3.3-23.5 5.4-8.5 2.1-17.7 4.5-20.5 5.3-2.7 0.9-8.8 2.9-13.5 4.6-4.7 1.7-9.3 3.5-10.2 4.1-1 0.5-2.2 1-2.7 1-0.5 0-8.8 3.8-18.3 8.4-9.5 4.7-19 9.6-21 11-2.1 1.4-4 2.6-4.3 2.6-0.3 0-3.9 2.3-8 5-4.1 2.8-7.7 5-8 5-0.3 0-4.9 3.3-10.2 7.2-5.4 4-14.7 11.4-20.8 16.5-6 5-14.6 12.7-19 17-4.4 4.3-11.6 11.9-16 16.8-4.4 5-9.8 11.3-12.1 14-2.2 2.8-7.2 9.4-11.2 14.8-4 5.3-7.2 10.2-7.2 10.7 0 0.6-0.3 1.1-0.8 1.3-0.4 0.1-2.3 2.7-4.3 5.7-2 3-5.8 9.3-8.6 14-2.7 4.7-7.8 14.1-11.2 21-3.5 6.9-8.3 17.5-10.8 23.5-2.4 6.1-6.4 16.9-8.8 24-2.4 7.2-5.3 16.6-6.5 21-1.2 4.4-2.6 10-3.1 12.5-0.5 2.5-1.8 9.2-2.9 15-1.1 5.8-2.9 17.9-4 27-1.9 15.7-2 23.7-2 166.8v150.2h696c-0.6-304.7-0.7-309.9-2.7-323-1.1-7.4-2.6-16.2-3.2-19.5-0.7-3.3-1.8-8.7-2.6-12-0.7-3.3-2.3-9.8-3.5-14.5-1.2-4.7-4.2-14.6-6.6-22-2.5-7.4-6.8-18.9-9.6-25.5-2.7-6.6-7.7-17.4-11.1-24-3.4-6.6-8.6-16.3-11.7-21.5-3.1-5.2-8.7-14-12.4-19.5-3.8-5.5-9.8-13.8-13.4-18.5-3.6-4.7-10.7-13.2-15.8-19-5-5.8-13.8-15-19.5-20.5-5.7-5.5-12.7-11.8-15.4-14-2.8-2.2-5.4-4.5-6-5.1-0.5-0.6-4.8-4-9.5-7.6-4.7-3.6-14.6-10.6-22-15.5-7.4-5-18.4-11.7-24.5-14.8-6-3.2-11.4-6.1-12-6.5-0.5-0.4-5.7-2.9-11.5-5.5-5.8-2.6-11.6-5.1-13-5.6-1.4-0.4-5-1.7-8-2.9-3-1.1-8.9-3.1-13-4.4-4.1-1.3-10.2-3.1-13.5-4-3.3-0.9-8.7-2.2-12-3-3.3-0.8-9.8-2.1-14.5-3-4.7-0.8-13.2-2.2-19-3-5.8-0.9-20.4-1.7-32.5-2-12.1-0.2-26.9-0.1-33 0.3zm7.3 22.8c4.2-0.2 11.3-0.4 15.7-0.5 4.4-0.1 15.9 0.5 25.5 1.2 9.6 0.8 21.6 2.2 26.5 3.1 5 0.9 14.1 2.8 20.3 4.3 6.2 1.5 11.2 3 11.2 3.5 0 0.4-0.6 0.7-1.2 0.7-0.7 0.1-2.2 0.8-3.4 1.8-1.1 0.9-2.3 2.8-2.6 4.2-0.4 1.4-0.2 3.9 0.2 5.5 0.6 2.1 2 3.6 4.7 4.8 3.3 1.6 4.2 1.7 6.7 0.5 1.6-0.7 3.5-2.2 4.3-3.3 0.7-1.1 1.3-3.3 1.3-5 0.1-1.6-0.8-4.1-3.7-8l4.6 1.3c2.5 0.7 5.1 1.7 5.6 2.2 0.6 0.5 0.3 1-1 1.4-1.1 0.3-2.6 1.7-3.2 3.1-0.7 1.4-1.3 3.7-1.3 5.3 0 1.5 0.7 3.7 1.5 5 0.9 1.3 2.9 2.4 5.3 2.8 2 0.3 4.7 0.1 6-0.5 1.2-0.6 3-2.7 4-4.6 1.4-2.9 1.5-3.9 0.5-6-1.1-2.1-1.1-2.5 0.2-2.5 0.8 0 3.9 1.1 6.8 2.5 4.7 2.3 4.9 2.5 2.2 2.5-1.6 0-4 0.9-5.2 2-1.3 1.1-2.6 3.2-2.9 4.8-0.3 1.5 0 4 0.8 5.6 0.7 1.6 2.7 3.5 4.3 4.3 1.8 0.9 4 1.2 5.5 0.8 1.4-0.4 3.3-1.4 4.3-2.3 1-0.9 2-3 2.3-4.7 0.3-1.6 0.1-4.2-0.5-5.7-0.6-1.6-0.8-2.7-0.3-2.5 0.4 0.1 3 1.3 5.7 2.7 5 2.4 5 2.4 2.4 3.5-1.5 0.5-3.6 1.9-4.8 3-1.5 1.3-2.1 3.2-2.1 5.5 0 1.9 0.6 4.2 1.3 5.1 0.7 0.9 2.2 2.1 3.5 2.7 1.2 0.7 3.4 1.2 4.8 1.2 1.5 0 3.7-1.2 5.5-3 1.9-2 2.9-4 2.9-6 0-1.6-0.7-3.7-1.5-4.5-0.8-0.8-1.3-1.5-1-1.5 0.3 0 3.2 1.5 6.5 3.3 4.9 2.6 5.6 3.3 3.8 3.5-1.3 0.1-3.2 0.4-4.3 0.6-1.1 0.3-2.8 2-3.7 4-1.7 3.4-1.7 3.8 0 7.6 0.9 2.1 1.4 3.9 1 4-0.5 0-1-0.3-1.2-0.7-0.2-0.5-5-3.2-10.7-6.1-5.7-3-15.1-7.4-20.9-9.9-5.8-2.5-16.1-6.3-23-8.4-6.9-2.2-14.7-4.6-17.5-5.5-2.7-0.8-6.1-1.5-7.5-1.5-2.3 0-2.2-0.1 1-1.8 1.9-1 4.1-3.1 4.8-4.7 0.8-1.9 1-3.9 0.5-5.8-0.4-1.6-1.9-3.8-3.3-4.8-1.4-1-4-1.9-5.7-1.8-2.3 0-4.1 0.9-5.8 2.8-1.8 1.8-2.5 3.8-2.5 6.2 0 2.2 0.9 4.4 4.5 8.2l-4-0.7c-2.2-0.3-6.2-1.1-9-1.6-2.7-0.5-9.5-1.4-15-1.9-5.5-0.5-12.2-1.2-20-2.2l2.8-2.9c1.5-1.6 2.7-4 2.7-5.4 0-1.4-0.4-3.5-1-4.7-0.6-1.3-2.1-2.9-3.5-3.5-1.4-0.7-3.4-1.3-4.5-1.3-1.1 0-2.9 0.5-4 1-1.1 0.6-2.9 2.5-4 4.3-1.8 2.8-2 3-2 1 0-1.3-0.9-3.2-2-4.3-1.3-1.3-3.3-2-6-2-3 0-4.7 0.6-6.5 2.5-1.7 1.7-2.5 3.6-2.5 6 0 2.4 0.8 4.3 2.5 6 1.6 1.6 3.6 2.5 5.5 2.5 1.7 0 3.9-0.4 5-1 1.1-0.5 2.7-2.5 3.5-4.2 0.8-2 1.4-2.6 1.5-1.5 0 0.9 1.4 3.1 6 7.7h-11.7c-6.5 0-16.5 0.5-22.3 1.1-5.8 0.6-15.9 1.9-22.5 3-6.6 1-12.2 1.6-12.5 1.4-0.3-0.3 0.3-0.5 1.3-0.5 0.9 0 2.6-1.2 3.7-2.7 1.2-1.6 2.1-4.3 2-6 0-2.4-0.8-4-3-5.8-1.6-1.4-3.8-2.5-4.7-2.6-1.2 0-0.9-0.3 0.7-0.8 1.4-0.5 4.6-1.1 12-2.1l-2 2c-1.3 1.3-2 3.4-2 5.8-0.1 2.1 0.7 4.7 1.7 6 1.1 1.5 3.3 2.5 5.8 2.9 3.3 0.5 4.5 0.1 6.6-1.8 1.4-1.3 3.1-3.7 3.7-5.4 0.9-2.6 1.1-2.7 1.1-0.7 0.1 1.4 1.3 2.9 3.4 4.2 1.7 1.1 4.2 2 5.5 2 1.2 0 3.6-1.3 5.2-3 1.7-1.7 3-4.1 3-5.5 0-1.4-0.7-3.8-1.5-5.5-0.8-1.6-2.2-3-3-3-0.8 0-1.5-0.4-1.5-1 0-0.6 3.5-1.1 7.8-1.3zm-23 2c2-0.2 5.1-0.5 9.7-0.8l-2.7 2.1c-1.6 1.1-2.8 2.9-2.8 4 0 1.1-0.3 2.2-0.7 2.5-0.5 0.2-1.5-0.7-2.3-2.1-0.8-1.4-2.3-2.7-3.2-2.9-1-0.3-1.8-0.9-1.8-1.5 0-0.5 1.7-1.1 3.8-1.3zm9.8 4.4c1-0.6 2.1-1.1 2.4-1.1 0.3-0.1 1.6 0.8 3 1.8 2.3 1.8 2.4 2.2 1.3 4.6-0.8 1.6-2.1 2.6-3.5 2.6-1.3 0-2.9-0.5-3.6-1.2-0.7-0.7-1.3-2.3-1.4-3.5-0.1-1.3 0.7-2.6 1.8-3.2zm17.1 1.4c0.8-1.6 2.1-2.5 3.5-2.5 1.3 0 2.9 0.5 3.6 1.2 0.7 0.7 1.2 2.2 1.2 3.3 0 1.1-0.5 2.6-1.2 3.3-0.6 0.6-1.9 1.2-2.7 1.2-0.9 0.1-2.5-0.9-3.6-2-1.7-1.8-1.8-2.4-0.8-4.5zm19.9-1.4c1-0.6 2-1.1 2.2-1.1 0.1 0 1 0.4 2 0.9 0.9 0.4 2 1.6 2.5 2.5 0.4 0.9 0.3 2.5-0.3 3.6-0.5 1.1-2 2-3.2 2-1.3 0-2.9-0.5-3.6-1.2-0.7-0.7-1.3-2.3-1.4-3.5-0.1-1.3 0.7-2.6 1.8-3.2zm-84.9 3.3c2.1-0.6 4.7-1.2 5.9-1.3 2-0.1 2-0.1 0.2 2.7-1 1.5-1.9 3.8-1.9 5.2 0 1.4 0.9 3.6 1.9 5 1 1.4 3.2 2.9 4.8 3.4 2.9 0.9 2.8 0.9-2.1 2.2-2.7 0.6-5.9 1.3-7 1.3-1.9 0.2-1.9 0.1-0.3-1.6 1.1-1.1 1.8-3.4 1.8-5.8 0-2.8-0.7-4.7-2.3-6.3-1.2-1.2-2.8-2.2-3.4-2.2-0.7 0-1.3-0.3-1.3-0.7 0-0.5 1.7-1.3 3.7-1.9zm28.2 0.5c0.7-1 2.2-1.9 3.4-1.9 1.2 0 2.8 0.5 3.5 1.2 0.7 0.7 1.2 2 1.3 2.8 0 0.8-0.9 2.4-2 3.5-2 1.9-2.2 1.9-4.6 0.3-1.4-1-2.5-2.3-2.6-2.9 0-0.6 0.4-1.9 1-3zm-17.9 2.3c0.8-0.7 2.1-1.2 3-1.2 0.8-0.1 2.1 0.5 2.8 1.2 0.7 0.7 1.1 2.7 1 4.3-0.2 2.4-0.8 3.1-2.8 3.3-1.4 0.1-3.1-0.3-3.8-1-0.7-0.7-1.4-2.2-1.4-3.3-0.1-1.2 0.4-2.6 1.2-3.3zm-24 1c1.9-0.5 3.7-1 3.9-1.1 0.2-0.1-0.5 0.9-1.7 2.2-1.3 1.3-2.2 3.5-2.2 5.5 0 1.7 0.5 4.1 1 5.2 0.6 1.1 2.2 2.6 6.5 4.8l-3 1.2c-1.6 0.6-4 1.3-5.2 1.6-2.1 0.4-2.2 0.2-1.2-1.8 0.6-1.3 0.8-4 0.5-6-0.4-2.4-1.5-4.4-2.8-5.3-1.3-0.8-4-1.5-6-1.5-2.5 0-4.5 0.7-5.8 2-1.1 1.1-2.3 3.3-2.7 5-0.8 2.9-0.8 2.9-2.5 1-1.1-1.2-3.1-2-8.3-2.1l4-1.8c2.2-1 8.1-3.1 13-4.8 5-1.7 10.6-3.5 12.5-4.1zm155.3-0.5c0.6-0.3 1.4-0.6 1.7-0.7 0.3 0 1.3 0.7 2.3 1.7 1.3 1.3 1.7 2.6 1.3 4.6-0.5 2.2-1.1 2.7-3.6 2.7q-3 0-4-2-1-2 0-3.9c0.6-1.1 1.6-2.2 2.3-2.4zm-149.8 4.9c0.9-0.9 2.3-1.6 3.1-1.6 0.8 0 2.1 0.7 2.9 1.5 0.8 0.8 1.5 2.2 1.5 3 0 0.8-0.7 2.2-1.6 3-0.8 0.8-2.2 1.5-3 1.5-0.8 0-2.1-0.7-2.9-1.5-0.8-0.8-1.5-2.1-1.6-2.9 0-0.8 0.7-2.2 1.6-3zm166.5-0.4c0.8-0.7 2-1.2 2.7-1.2 0.7 0 2 0.2 2.8 0.5 1 0.3 1.5 1.8 1.5 4 0 2.7-0.5 3.6-2 4-1.1 0.3-2.9 0.1-4-0.5-1.1-0.5-2.1-2-2.2-3.3-0.1-1.3 0.4-2.8 1.2-3.5zm18 5c0.8-0.7 2.3-1.2 3.5-1.2 1.1 0 2.6 0.5 3.3 1.2 0.7 0.7 1.2 2.3 1.2 3.6 0 1.3-1 2.7-2.5 3.5-2.1 1-2.7 0.9-4.5-0.8-1.1-1.1-2.1-2.7-2.2-3.5-0.1-0.9 0.4-2.1 1.2-2.8zm-203 1c0.8-0.7 2.2-1.2 3.2-1.2 1 0 2.5 1 3.3 2.3 1.3 1.9 1.3 2.5 0.1 4.2-0.7 1.1-2.1 2.1-3 2.3-0.9 0.1-2.3-0.4-3.1-1-0.9-0.7-1.7-2.2-1.7-3.3-0.1-1.2 0.4-2.6 1.2-3.3zm-26.5 4.7c3.3-1.5 6.1-2.8 6.2-2.8 0.2-0.1-0.4 0.9-1.2 2.2-0.8 1.2-1.5 3.6-1.5 5.2 0.1 2.8 0 2.9-1.7 1.3-1-0.9-3.1-2-4.8-2.4-3-0.7-3-0.7 3-3.5zm9.6 1.4c0.6-0.7 1.9-1.3 2.8-1.3 0.9-0.1 2.2 0.5 2.9 1.2 0.7 0.7 1.1 2.4 1 3.7-0.2 1.3-1.1 2.9-2 3.5-1.3 0.8-2.3 0.8-3.5 0-1-0.6-1.9-2.2-2.1-3.5-0.1-1.3 0.3-3 0.9-3.6zm239.5 0.8c1-0.6 2.1-1.1 2.4-1.1 0.3-0.1 1.6 0.7 2.9 1.7 1.7 1.3 2.2 2.4 1.7 4.1-0.3 1.3-1.6 2.4-3.1 2.7-1.4 0.3-3.2-0.1-4-0.7-0.9-0.7-1.6-2.3-1.7-3.5-0.1-1.2 0.7-2.6 1.8-3.2zm-227.6 0.9l2 2c1.1 1.1 2.5 2 3 2 0.6 0 1 0.5 1 1 0 0.6-0.8 1-1.7 1-1 0-3.1 0.7-4.8 1.5-1.6 0.9-3.1 1.5-3.2 1.5-0.2 0 0.6-1 1.7-2.2 1.1-1.3 2-3.3 2-4.5zm-37.5 4.7c3.9-2 7.2-3.7 7.5-3.7 0.2 0-0.5 0.9-1.8 2-1.2 1.1-2.2 3-2.3 4.2-0.1 1.2 0 3.2 0.1 4.3 0.1 1.1 1.2 3 2.4 4.2 1.2 1.2 3 2.4 4 2.5 1.3 0.2 0.5 0.9-6.9 4.5v-4.3c0-2.9-0.6-4.9-2-6.4-1.1-1.2-3.3-2.5-5-2.9-2.9-0.7-2.9-0.8 4-4.4zm8.5 1.5c0.8-0.7 2.5-1.2 3.7-1.2 1.3 0 2.8 0.8 3.3 2 0.6 1.1 1 2.4 1 3 0 0.5-1.1 1.6-2.5 2.5-1.8 1-3 1.2-4.5 0.5-1.1-0.6-2.1-2.1-2.2-3.3-0.1-1.3 0.5-2.9 1.2-3.5zm12.3 3.1c0.2-2.2 0.4-2.4 1.6-1.2 0.9 0.7 2.8 1.6 4.4 1.9 2.8 0.4 2.7 0.5-2.4 2.8-4.3 1.8-5.2 2-4.6 0.7 0.4-0.8 0.8-2.7 1-4.2zm261.1-1.1c0.3-0.7 1.6-1.3 2.8-1.3 1.3 0 2.9 0.7 3.6 1.5 0.7 0.9 1 2.7 0.7 4.1-0.4 2.1-1 2.4-3.7 2.2-2.7-0.2-3.3-0.7-3.6-2.7-0.2-1.4-0.1-3.1 0.2-3.8zm-158.4 3.8c5.8-0.5 19.1-0.7 29.5-0.4 10.8 0.3 24.4 1.3 31.5 2.3 6.9 1.1 15 2.4 18 3 3 0.6 8.4 1.8 12 2.7 3.6 0.9 8.8 2.3 11.5 3.1 2.8 0.9 7.9 2.6 11.5 3.8 3.6 1.2 11.5 4.4 17.5 6.9 6.1 2.6 13.3 5.9 16 7.3 2.8 1.5 8.8 4.9 13.5 7.6 4.7 2.8 12.2 7.4 16.8 10.3 4.5 3 13.1 9.2 19 14 5.9 4.7 15.4 13.2 21 18.7 5.7 5.6 13.4 13.8 17.2 18.2 3.7 4.4 9.4 11.6 12.7 16 3.2 4.4 7.9 11.1 10.5 15 2.5 3.8 7.1 11.7 10.1 17.5 3.1 5.7 7.2 14.3 9.2 19 2.1 4.6 5.4 13.6 7.5 20 2.1 6.3 4.5 14.6 5.4 18.5 0.9 3.8 2.3 10.3 3.1 14.5 0.9 4.1 1.5 8.2 1.5 9.2 0 1.7-13.7 1.8-273.5 1.8-259.8 0-273.5-0.1-273.5-1.8 0.1-1 0.7-5.3 1.5-9.7 0.8-4.4 2.1-10.7 2.9-14 0.8-3.3 2.1-8.5 2.9-11.5 0.9-3.1 3.1-9.8 5-15 1.9-5.3 4.5-11.8 5.7-14.5 1.2-2.8 4-8.6 6.2-13 2.2-4.4 4.7-9.3 5.6-10.7 1-1.5 3.5-5.7 5.7-9.4 2.2-3.7 7.8-11.7 12.4-17.8 4.6-6.1 11.1-14.3 14.6-18.1 3.4-3.9 10-10.7 14.6-15.2 4.6-4.4 10.2-9.6 12.4-11.5 2.2-1.9 6.9-5.7 10.5-8.5 3.6-2.8 9.7-7.2 13.5-9.8 3.9-2.6 11.7-7.6 17.5-10.9 5.8-3.4 12.5-7.1 15-8.3 2.5-1.2 7-3.3 10-4.7 3-1.4 9.1-3.9 13.5-5.7 4.4-1.7 10-3.8 12.5-4.6 2.5-0.8 5.9-1.9 7.5-2.3 1.7-0.5 6.4-1.7 10.5-2.9 4.1-1.1 10.9-2.7 15-3.6 4.1-0.9 11.8-2.3 17-3.1 5.2-0.9 14.2-2 20-2.4zm-140.7 2.7c2.3-1.5 4.4-2.7 4.7-2.7 0.2 0-0.1 0.5-0.8 1.2-0.7 0.7-1.2 2.6-1.3 7.3l-6.8-3zm7.8 0.9c0.5-0.9 2-1.7 3.2-1.7 1.2-0.1 2.8 0.6 3.5 1.5 0.6 0.8 1 2.6 0.7 4-0.4 2.1-1.1 2.5-4 2.5-2.8 0-3.6-0.4-3.9-2.3-0.3-1.2 0-3 0.5-4zm319.4-0.3l10.4 6.1-3.2 0.7c-1.8 0.3-4.3 1.9-5.6 3.5-1.8 2.2-2.2 3.6-1.5 10.8l-6-3.8c-3.4-2.1-6.2-3.9-6.3-4 0-0.1 1.5-0.1 3.6 0.1 2.7 0.3 4.4-0.3 6.5-2 2.5-2 2.8-2.8 2.5-6.8zm-11.5 1.7c0.8-0.6 2.4-1.2 3.7-1.2 1.4 0 2.7 0.9 3.4 2.3 0.8 1.7 0.8 2.8-0.2 4.5-0.8 1.3-2.3 2.3-3.4 2.3-1.1 0-2.6-0.6-3.3-1.3-0.7-0.7-1.3-2.2-1.4-3.3-0.1-1.1 0.4-2.6 1.2-3.3zm-332.5 8.5c2.2-1.5 4-2.7 4-2.7 0 0 0 2 0 4.5 0 2.8-0.3 4.1-1 3.5-0.5-0.5-2.3-1.3-7-2.6zm9.6-2c0.8-0.3 2.1-0.6 2.9-0.6 0.8-0.1 2.1 0.5 2.8 1.2 0.7 0.7 1.2 2.2 1.2 3.5 0 1.2-0.8 2.7-1.7 3.2-1 0.5-2.8 0.7-4 0.5-1.8-0.4-2.3-1.2-2.5-3.9-0.1-2.2 0.3-3.6 1.3-3.9zm11.9 2.6c0-1.7 0.3-2.3 0.8-1.5 0.4 0.7 1.9 1.6 6.1 2.7l-4.2 2.5c-3.4 2-4.1 2.1-3.4 0.7 0.4-0.9 0.7-2.9 0.7-4.4zm327 1.9c0.8-0.6 2.3-1.2 3.5-1.2 1.1 0 2.6 0.5 3.3 1.2 0.7 0.7 1.1 2.5 1 3.8-0.2 2-0.9 2.6-3.3 2.8-1.6 0.2-3.6-0.3-4.3-1-0.7-0.7-1.4-2-1.4-2.8-0.1-0.9 0.4-2.1 1.2-2.8zm12 2.8c0-2.2 0.2-4 0.5-4 0.3 0 2.1 1.3 7.7 5.5l-3.9 1.3c-2.1 0.6-3.9 1.2-4 1.2-0.2 0-0.3-1.8-0.3-4zm-366.4 3.3c1-0.7 2.1-1.3 2.4-1.3 0.3 0 1.4 0.6 2.4 1.3 1.2 0.9 1.8 2.2 1.5 3.7-0.2 1.3-1.2 2.8-2.1 3.4-1.3 0.8-2.3 0.8-3.5 0-1-0.6-1.9-2.2-2.1-3.5-0.2-1.4 0.3-2.9 1.4-3.6zm10.9 3.3c0-4.1 0.1-4.3 2-2.9 1.1 0.7 3.1 1.3 4.5 1.3 2.4 0 2.3 0.1-1 2.3-1.9 1.3-3.9 2.6-4.5 2.9-0.6 0.4-1-1-1-3.6zm-21 0c2.2-2 4.1-3.5 4.1-3.5 0.1-0.1-0.1 0.7-0.3 1.7-0.3 0.9-0.3 2.6 0.1 3.7 0.3 1.1 1.3 2.9 2.2 4 0.8 1.1 3.1 2.3 8.7 3l-7.8 5.6-0.8-3.8c-0.4-2.1-1.7-4.6-3-5.6-1.2-0.9-3.3-1.7-4.7-1.7-2.4 0-2.3-0.1 1.5-3.4zm373.5 0.5c1.4-1.1 2.6-2 2.7-2 0.1-0.1-0.3 0.8-0.8 1.9-0.5 1.1-0.9 3-0.9 4.3 0 1.2 0.5 2.8 1.2 3.5 0.7 0.6 1.1 1.4 0.8 1.6-0.3 0.3-3-1.3-6-3.5-5.3-3.7-5.4-3.9-2.5-3.8 1.7 0 4.1-0.9 5.5-2zm7 0.1c0.8-0.7 2.3-1.1 3.4-1 1 0.2 2.3 1 2.9 1.8 0.5 0.9 0.7 2.8 0.3 4.3-0.4 1.9-1.2 2.7-2.6 2.7-1.1 0-2.7-0.2-3.5-0.5-0.8-0.2-1.6-1.7-1.7-3.3-0.1-1.5 0.4-3.3 1.2-4zm11.5 0.1l3.7 2.6c2.1 1.4 3.8 3 3.8 3.4 0 0.4-0.8 0.7-1.7 0.7-1 0-3.3 0.9-5 2-2.9 1.8-3.3 2.6-3.5 6.6-0.3 4.5-0.3 4.5-2.3 2.7-1.1-1-3.2-2.7-7.1-5.8h3.9c3.1 0 4.4-0.6 6.4-3 1.8-2.1 2.4-3.9 2.2-6.1zm-397 7.8c1.1-0.5 2.2-1 2.5-1.1 0.2 0 1.5 0.8 2.8 1.8 1.8 1.3 2.2 2.4 1.8 4-0.4 1.4-1.6 2.5-3.1 2.8-1.4 0.2-3.2-0.1-4.1-0.8-0.8-0.7-1.6-2.2-1.6-3.4-0.1-1.3 0.7-2.7 1.7-3.3zm-9.8 3.9c1.8-1.6 3.5-2.9 3.7-2.9 0.3 0 0.3 0.4 0 1-0.2 0.5 0 2.4 0.5 4.2 0.7 2.1 2.2 4 8 7.3l-2.7 2.7c-1.5 1.6-3 2.8-3.2 2.8-0.3 0-0.5-1.3-0.5-2.9 0-1.6-0.9-3.9-2-5.1-1.1-1.3-3.2-2.7-7-4.2zm409.2 1.3c0.8-0.7 2.4-1.2 3.7-1.2 1.5 0 2.8 0.9 3.5 2.5 1.1 2.2 1 2.8-0.9 4.8-2 1.9-2.5 2-4.8 0.9-1.4-0.7-2.6-2.2-2.7-3.5-0.1-1.3 0.4-2.9 1.2-3.5zm11.9 2.1c-0.3-2.5-0.1-3 1.1-2.3 0.8 0.5 3.1 2.5 5 4.5 2.6 2.6 3 3.4 1.5 2.9-1.1-0.3-3.3 0-4.8 0.7-1.6 0.8-3.6 2.5-4.4 3.9-0.9 1.4-1.4 3.6-1.2 5.1 0.4 2.5 0.4 2.5-8.2-4.6l3.8-0.7c2.6-0.5 4.4-1.6 5.7-3.5 1.1-1.8 1.7-4 1.5-6zm-427.4 6.3c0.9-0.9 2.1-1.6 2.6-1.6 0.5 0 1.8 0.4 2.9 1 1.1 0.5 2 2 2 3.2 0 1.3-0.5 2.8-1.2 3.5-0.7 0.7-2 1.3-3 1.3-1 0-2.5-0.7-3.3-1.5-0.8-0.8-1.5-2.2-1.6-2.9 0-0.8 0.7-2.2 1.6-3zm-9.3 4.9c1.3-1.4 2.6-2.5 3-2.5 0.5 0 0.8 0.8 0.8 1.7-0.1 1 0.8 2.9 1.9 4.3 1.1 1.4 3.4 2.9 8.2 4.5l-6.1 6v-3.3c0-2.4-0.7-3.8-2.8-5.3-1.5-1.1-3.7-2.2-7.2-2.9zm439.3 0.7c0.9-1.2 2.4-2.2 3.5-2.2 1.1 0 2.6 1 3.4 2.2 1.3 1.9 1.3 2.6 0.2 4.3-0.8 1.1-2.4 2-3.7 2-1.2 0-2.8-0.9-3.6-2-1.1-1.7-1.1-2.4 0.2-4.3zm12.1 0.8c-0.6-2.2-0.1-2 3.9 2 2.4 2.4 4.5 4.5 4.5 4.5-0.1 0-1.3-0.2-2.8-0.4q-2.7-0.3-6 2.3c-2.4 1.9-3.3 3.5-3.8 9.7l-9-9 3 0.5c1.7 0.3 4.3 0 5.8-0.8 1.6-0.7 3.3-2.5 3.9-3.8 0.6-1.4 0.8-3.7 0.5-5zm-455.7 7.2c0.8-0.7 2.4-1.2 3.5-1.3 1.2 0 2.7 1.1 3.5 2.6 1.4 2.3 1.4 2.7-0.7 4.7-1.9 2-2.5 2.1-4.7 1-1.5-0.7-2.6-2.2-2.8-3.5-0.1-1.3 0.5-2.9 1.2-3.5zm-6.5 2.3l1.3 3.2c0.7 1.8 2.3 3.9 3.5 4.8 1.2 0.8 3.3 1.5 4.5 1.5 2.2 0 2.2 0-3.3 7l-0.5-2.9c-0.2-1.6-1.6-3.9-3-5-1.3-1.2-3.5-2.2-7-2.1l2.3-3.3zm464 3.1c0.9-0.9 2.4-1.6 3.4-1.6 0.9 0 2.2 0.6 2.9 1.3 0.7 0.6 1.3 2.2 1.3 3.5 0 1.2-1 2.7-2.1 3.2-1.4 0.7-2.6 0.6-4.5-0.5-1.3-0.8-2.5-2.1-2.5-2.9-0.1-0.8 0.6-2.1 1.5-3zm13 1.4l2 2.3c1.1 1.2 2.7 3 3.5 4 1.4 1.5 1.2 1.7-2.5 1.6-2.8 0-4.6 0.7-6.2 2.3-1.2 1.3-2.4 3.8-2.8 8.9l-7.1-8.6h3.2c1.8 0 4.2-0.8 5.4-2 1.2-1.1 2.7-3.4 3.3-5.2zm-482.5 7.1c1.3-0.5 3-0.6 3.8-0.2 0.8 0.3 1.9 1.4 2.4 2.3 0.5 1 0.4 2.6-0.2 3.8-0.5 1.1-2 2-3.2 2-1.2 0-2.8-0.6-3.5-1.3-0.7-0.7-1.4-2.3-1.5-3.5-0.1-1.6 0.6-2.6 2.2-3.1zm-7.6 4l1.6 3c0.8 1.6 2.7 3.6 4 4.4 1.4 0.8 3.3 1.4 4.3 1.4 1.6 0.1 1.5 0.4-2.6 6.6l-1.2-3c-0.6-1.7-1.8-3.6-2.6-4.2-0.7-0.6-2.8-1.3-7.9-1.8l2.2-3.2zm489.7 2.1c0.7-0.7 2.3-1.3 3.4-1.3 1.1 0 2.6 0.7 3.3 1.5 0.7 0.9 1 2.7 0.8 4.1-0.4 1.5-1.5 2.7-3.1 3.2-1.9 0.6-2.8 0.3-3.9-1.2-0.8-1.1-1.6-2.7-1.7-3.6-0.1-0.8 0.4-2.1 1.2-2.7zm11.9 0.3l3 4.2c1.7 2.3 3.1 4.5 3.1 4.8 0 0.2-1.6 0.5-3.5 0.5-2.6 0-4.2 0.7-6 2.7-1.4 1.5-2.7 3.8-2.8 5.1-0.2 2.2-0.5 2-6.5-6.3l3.9 0.2c3 0.2 4.4-0.3 6.4-2.2q2.5-2.5 2.4-5.8zm-506.9 9.7c0.8-0.6 2.2-1.2 3.2-1.2 1 0 2.5 0.7 3.3 1.5 0.8 0.8 1.5 2.2 1.5 3 0 0.8-0.7 2.2-1.6 3-0.9 0.8-2 1.5-2.5 1.5-0.5 0-1.8-0.4-2.9-1-1.1-0.5-2.1-2-2.2-3.3-0.1-1.3 0.4-2.8 1.2-3.5zm-5.6 3.6l1.1 2.9c0.7 1.5 2 3.5 3 4.3 1 0.8 3 1.5 7.1 1.5l-4.1 6.2-1.1-2.6c-0.6-1.4-2.1-3.4-3.5-4.3-1.3-1-3.4-1.8-6.9-1.8l2.2-3.1zm512 2.3c1-1.2 2.6-2.1 3.5-2.1 0.9-0.1 2.1 0.5 2.9 1.2 0.7 0.7 1.1 2.4 1 3.7-0.2 1.3-1.1 2.9-2.1 3.5-1.3 0.8-2.2 0.8-3.5 0-0.9-0.6-2.2-1.8-2.7-2.7-0.8-1.1-0.5-2.1 0.9-3.6zm12 5c0.8-2.8 1.1-3.1 2.5-2.1 0.8 0.7 1.4 1.8 1.3 2.4-0.2 0.6 0.4 1.8 1.3 2.6 0.8 0.8 1.5 1.7 1.5 2 0 0.3-2.1 0.5-4.6 0.5-3.7 0-5 0.5-6.6 2.5-1 1.4-1.9 3.6-1.8 5 0 2.3-0.2 2.2-2.8-1.5-1.6-2.2-3.1-4.4-3.4-5-0.4-0.6 0.9-0.9 3.5-0.7 2.4 0.2 5-0.3 6.2-1.1 1.1-0.7 2.4-2.8 2.9-4.6zm-530.4 5.9c0.6-1.1 2-2 3.2-2 1.3 0 2.9 0.4 3.6 0.8 0.7 0.4 1.1 2 1 3.7-0.3 2.6-0.8 3.1-3.6 3.3-2.4 0.2-3.5-0.3-4.2-1.8q-1-2 0-4zm529.5 5.5c0.8-1.4 2-2.5 2.5-2.5 0.5 0 1.9 0.5 3 1 1.1 0.6 2 2 2 3.3 0 1.2-0.5 2.8-1.2 3.5-0.7 0.7-2.3 1.2-3.5 1.2-1.3 0-2.8-0.9-3.3-2-0.8-1.4-0.6-2.7 0.5-4.5zm-535.4-0.4l3.2 3.1c2.6 2.5 3.8 3 10.4 2.3l-2.1 3.8c-1.2 2-2.5 3.7-2.9 3.7-0.4 0-1-1.1-1.2-2.5-0.3-1.5-1.8-3.1-3.5-4-1.7-0.8-3.9-1.5-5-1.5-1.9 0-1.9-0.1-0.4-2.5zm548.1 3l1.7 2.3c0.9 1.2 2.2 3.2 2.8 4.4 1.2 2.2 1.1 2.3-2.1 1.2-2.5-0.9-3.9-0.9-6.2 0.2-1.7 0.8-3.7 2.9-6.2 8.4l-5.3-9.5 3.2 1.1c2.6 0.9 3.9 0.9 6.3-0.3 1.6-0.8 3.6-2.9 4.4-4.6zm-552.6 9.6c0.8-1.7 2.1-2.7 3.5-2.7 1.3 0 2.9 0.6 3.6 1.3 0.7 0.7 1.2 2.1 1.3 3.2 0 1.2-1.1 2.6-2.6 3.3-2.1 1.1-2.8 1-4.7-0.6-2-1.7-2.2-2.2-1.1-4.5zm548.7 3.6c0.3-0.7 1.6-1.2 2.8-1.2 1.3 0 2.9 0.3 3.6 0.7 0.7 0.4 1.2 2 1 3.7-0.3 2.7-0.6 3-3.8 3-3 0-3.5-0.3-3.8-2.5-0.2-1.3-0.1-3 0.2-3.7zm-554.2 0.6l2.9 3.1c2.3 2.4 3.7 3 10.9 3l-4.5 9-1.2-3c-0.7-1.6-2.5-3.7-4-4.6-1.6-0.9-3.8-1.5-5-1.3-1.3 0.3-2.3 0.3-2.3 0.1-0.1-0.1 0.6-1.6 1.6-3.3zm566.8 2.6q0-1.9 2.4 2.5c1.3 2.5 2.3 4.6 2.2 4.7-0.1 0-1.9-0.1-3.9-0.3-3.7-0.3-3.7-0.4-2.3-2.6 0.9-1.2 1.6-3.2 1.6-4.3zm-12.8 11.4c-2.2-4.7-2.2-4.8-0.3-3.9 1.1 0.6 2.9 1 4 1 1.9 0 1.9 0.2 0.5 3-0.8 1.7-1.2 3.8-0.9 4.8 0.3 1 0.2 1.4-0.3 0.9-0.4-0.5-1.8-3.1-3-5.8zm-557.2-1.4c0.6-0.8 2.1-1.5 3.3-1.5 1.2 0 2.7 0.7 3.4 1.5 0.7 0.9 1 2.7 0.7 4-0.4 2.1-1 2.5-4 2.5-2.9 0-3.6-0.4-4-2.5-0.3-1.3 0-3.1 0.6-4zm566.5 1.6c1.1-0.5 2.4-1 2.9-1.1 0.6 0 1.9 0.9 3 2 1.9 1.9 1.9 2.3 0.5 4.6-0.8 1.4-2.4 2.5-3.5 2.5-1.1 0-2.5-0.6-3.2-1.3-0.7-0.7-1.4-2.2-1.5-3.5-0.1-1.2 0.7-2.6 1.8-3.2zm11.5 4.7c0-2.2 0-2.2 1.3 0.2 0.8 1.4 1.7 3.6 2 4.8 0.6 2.1 0.4 2.2-2.6 1.6-2.6-0.4-4 0-6.5 2-2.7 2.2-3.3 3.3-3.3 6.6 0 3 0.7 4.7 2.5 6.5 1.4 1.4 3.5 2.5 7 2.5l-2 2.1c-1.3 1.4-2 3.5-2 6.1 0 3.1 0.6 4.6 2.8 6.4 1.5 1.4 4 2.4 5.5 2.5 1.5 0 3.8-0.8 5.2-1.8 1.3-1 2.9-3.1 4.7-7.8l2.2 6.5c1.1 3.6 2.1 7 2.1 7.5 0.1 0.6-0.9 0.1-2.2-1.1-1.3-1.2-3.2-2.3-4.3-2.4-1.1-0.1-2.7-0.1-3.5-0.1-0.8 0-2.7 1.2-4.2 2.6-1.9 1.8-2.8 3.6-2.8 5.8 0 1.8 0.9 4.5 2 6 1.1 1.6 3.3 3 5 3.2 1.9 0.4 4.2-0.1 6.1-1.2 1.8-1 3.4-2.9 3.7-4.5 0.4-1.6 1.1-2.8 1.5-2.8 0.4 0 1 1.3 1.3 2.8 0.3 1.5 1 4.3 1.5 6.2 0.5 2 2 8.5 3.3 14.5 1.4 6.1 2.7 13 3 15.3 0.5 3.4 0.3 4.2-0.9 4.2-1.2 0-1.3-0.8-0.8-4.2 0.6-3.7 0.3-4.6-2-7-2-2.1-3.6-2.8-6.7-2.8-2.9 0-4.6 0.7-6 2.3-1.2 1.2-2.3 3.1-2.6 4.2-0.3 1.1-0.3 3.3 0 4.8 0.6 2.4 0.3 2.7-1.9 2.7-2 0-2.6-0.5-2.9-3.2-0.3-1.8-1-7.8-1.6-13.3-0.6-5.5-2-14.5-3.1-20-1.2-5.5-3.6-14.9-5.4-21-1.9-6-4.7-14.6-6.3-19-1.6-4.4-3.4-9-4-10.2-0.7-1.2-1.2-2.6-1.2-3 0-0.4 0.4-0.2 0.8 0.5 0.4 0.8 2.7 1.6 5.2 2 4 0.5 4.9 0.3 7.3-2.1 1.5-1.5 2.7-3.7 2.8-4.9zm-584.2-0.5l3 2.9c2.5 2.3 3.9 2.8 7.2 2.6 3.2-0.2 3.9 0.1 3.5 1.2-0.2 0.9-1 3.2-3.1 8.9l-2.2-3.9c-1.7-2.9-3.1-4.1-5.5-4.6-1.8-0.3-3.8-0.3-4.5 0-0.7 0.4-1.3 0.4-1.3 0.1 0-0.2 0.7-2 1.4-3.8zm-3.1 14.2c0.8-1.5 2.2-2.5 3.5-2.5 1.3-0.1 2.9 0.5 3.6 1.2 0.7 0.7 1.1 2.4 1 3.8-0.2 2-0.9 2.6-3.3 2.8-1.8 0.2-3.6-0.3-4.5-1.3-1.2-1.3-1.3-2-0.3-4zm583.4-0.7c0.5-1 2-1.8 3.2-1.8 1.2-0.1 2.8 0.6 3.5 1.5 0.6 0.8 1 2.6 0.7 4-0.4 2.1-1.1 2.5-4 2.5-2.8 0-3.6-0.4-3.9-2.2-0.3-1.3 0-3.1 0.5-4zm10.7 7.7c0.9-1.3 2.1-2.4 2.6-2.5 0.5 0 1.1 1.4 1.3 3 0.1 1.7 0.8 3.2 1.3 3.5 0.6 0.3 1 1.1 1 1.8 0 0.7-0.9 0.2-2.2-1-1.3-1.2-3.1-2.3-4-2.3-1.7 0-1.7-0.1 0-2.5zm-600.7 1.8c0.7-1.8 1.4-3.3 1.6-3.3 0.2 0 1.4 1.1 2.8 2.5 1.6 1.7 3.6 2.5 5.8 2.5 1.7 0 4.3-0.8 5.6-1.7 2-1.4 2.4-1.5 1.9-0.3-0.4 0.8-1.4 4-2.3 7-1 3-2.1 6-2.5 6.5-0.5 0.6-1.1-0.1-1.4-1.7-0.4-1.7-1.7-3.3-3.6-4.3-1.6-0.8-3.8-1.5-4.7-1.5-1 0-2.8 0.7-4 1.5-2.2 1.5-2.3 1.5-1.4-1.2 0.5-1.5 1.5-4.2 2.2-6zm595.4 6.4c0.5-0.4 2.1-0.7 3.7-0.7 1.8 0 3.2 0.7 3.8 2 0.6 1.1 0.8 2.7 0.5 3.5-0.3 0.8-1.4 1.7-2.5 2-1.1 0.3-2.9 0.3-4 0-1.3-0.3-2-1.4-2.2-3.3-0.1-1.6 0.2-3.2 0.7-3.5zm-595.8 6.9c0.8-1.6 2.1-2.6 3.5-2.6 1.3-0.1 2.9 0.5 3.6 1.2 0.7 0.7 1.1 2.4 1 3.7-0.2 1.4-1.2 2.8-2.5 3.3-1.7 0.6-2.9 0.3-4.5-1.1-2-1.6-2.2-2.2-1.1-4.5zm-7.2 9.4c1.8-6.5 1.8-6.5 3.2-3.7 0.7 1.5 2.2 3.2 3.3 3.7 1.1 0.6 3.5 1 5.3 1 1.7 0 4.1-0.8 5.1-1.8 1.8-1.6 1.9-1.6 1.1 1.3-0.4 1.7-1.4 5.5-2.1 8.5-0.7 3-1.3 4.8-1.3 4 0-0.8-0.9-2.7-2.1-4.2q-2-2.8-5.7-3.4c-3-0.5-4.4-0.1-6.8 1.8-1.9 1.4-2.7 1.8-2.4 0.8 0.4-0.8 1.5-4.4 2.4-8zm610.3 1.7c0.9-0.2 1.8-0.5 2-0.6 0.1 0 1.1 0.4 2.2 0.9 1.1 0.6 2 2 2 3.3 0 1.2-0.5 2.8-1.2 3.5-0.6 0.7-1.9 1.2-2.7 1.2-0.9 0-2.4-0.5-3.5-1.2-1.4-1-1.7-2-1.2-4 0.4-1.4 1.4-2.8 2.4-3.1zm-608.8 10.3c0.6-1.1 2.1-2 3.3-2 1.2 0 2.8 0.4 3.5 0.8 0.7 0.4 1.2 2 1 3.7-0.3 2.6-0.7 3.1-3.5 3.3-2.5 0.2-3.6-0.3-4.3-1.8q-1-2 0-4zm-6.8 8c0.9-4.1 1.3-5 1.8-3.5 0.4 1.1 2 3 3.6 4.3 1.6 1.3 4.1 2.3 5.6 2.3 1.6-0.1 3.9-1.3 5.9-3.3 2.4-2.4 3.1-2.7 2.5-1.3-0.4 1.1-1.1 6.3-1.6 11.5-0.6 5.2-1.2 11.4-2 18h-10.5c-9.8 0-10.5-0.1-10.5-2 0-1.1 0.9-6.1 2-11.2 1.1-5.1 2.5-11.8 3.2-14.8zm623.4 20.1c1-0.6 2-1 2.2-1.1 0.1 0 1.1 0.5 2.2 1 1.1 0.6 2 2 2 3.3 0.1 1.2-0.6 2.8-1.5 3.5-0.8 0.7-2.6 1-4 0.7-1.9-0.4-2.5-1.2-2.7-3.4-0.1-2 0.5-3.3 1.8-4zm-631.2 25.8l7.4 0.3c6.7 0.3 7.7 0.6 9.3 2.8 1.1 1.4 2.7 5 3.6 8 1.6 5.1 1.7 16.9 2 140.8 0.3 134.7 0.3 135.2-1.7 135.2-1.6 0-2-0.7-2-3.7 0-2.1-0.6-4.5-1.3-5.4-0.6-1-2.4-2.2-3.9-2.8-1.6-0.6-4.1-0.8-5.9-0.3-2.1 0.5-3.8 1.9-5.1 4.2-1.3 2.2-1.8 4.4-1.4 5.8 0.4 1.6 0.2 2.2-0.9 2.2-1.3 0-1.5-15.1-1.5-129.7 0-71.4 0.3-136 0.7-143.6zm74.6 0.1h33.3c29.7 0 33.8 0.2 39.2 1.9 3.3 1 7.8 2.7 10 3.6 2.2 0.9 6.8 3.7 10.3 6.1 3.8 2.7 7.9 6.8 10.6 10.7 2.4 3.4 5.4 8.2 6.6 10.7 1.3 2.5 2.9 6.5 3.6 9 0.8 2.5 2.1 8.8 3 14 0.8 5.2 1.5 15.1 1.5 22 0.1 7.1-0.6 16.4-1.5 21.5-0.9 5-2.1 10.6-2.7 12.5-0.6 1.9-2.1 5.8-3.2 8.5-1.2 2.8-3.7 7.7-5.6 11-1.9 3.3-6.2 8.7-9.6 12-3.4 3.3-8.6 7.5-11.6 9.2-2.9 1.8-7.9 4.2-10.9 5.3-3 1.2-9.1 2.8-13.5 3.6-5.6 1-15.6 1.4-59.5 1.4v-81.5zm112.5 1.6c-3.6-1.3 7.7-1.5 122-1.4 69.3 0 131.9 0.3 139 0.7 9.8 0.5 12.3 0.9 10 1.5-1.6 0.5-5.9 2.3-9.5 3.9-3.6 1.7-9.8 5.3-13.9 8.1-4.1 2.8-9.8 7.8-12.9 11.1-3 3.3-6.9 8.5-8.6 11.5-1.8 3-4.2 8.2-5.4 11.5-1.2 3.3-2.9 9.8-3.8 14.5-1.2 6.4-1.5 11.3-1.1 19.5 0.4 6.1 1.3 13.5 2.2 16.5 0.8 3 2 6.9 2.6 8.5 0.6 1.7 2.7 6.2 4.6 10 1.8 3.9 5.7 9.8 8.6 13.2 2.9 3.4 8.1 8.7 11.7 11.7 3.6 3 10.1 7.5 14.5 10 4.4 2.5 11 5.7 14.8 7.1 3.7 1.4 10.2 3.4 14.5 4.6 4.2 1.1 11.5 2.8 16.2 3.6 6.4 1.2 17.5 1.7 80 2.3v117h-498v-117l35.8-0.4c22.5-0.2 38.1-0.8 42.2-1.5 3.6-0.7 10.3-2.2 15-3.3 4.7-1.1 10.8-2.8 13.5-3.8 2.8-0.9 7.7-3 11-4.5 3.3-1.5 9.6-5.2 14-8.1 4.4-2.9 10.8-8.1 14.2-11.6 3.4-3.4 7-7.4 8-8.8 1-1.4 2.4-3.4 3.1-4.5 0.7-1.1 2.9-5.4 4.9-9.5 2-4.1 4.4-10.9 5.4-15 1.4-5.4 1.9-11.3 1.9-21 0-10.5-0.4-15.3-2.1-21.5-1.1-4.4-3.5-11.1-5.4-15-1.8-3.8-5.4-9.6-7.9-12.7-2.5-3.2-7.2-7.8-10.3-10.3-3.2-2.6-8.7-6.3-12.3-8.4-3.6-2-8.3-4.4-10.5-5.3-2.2-0.9-5.8-2.3-8-3.2zm348.5-0.6c20.1-0.3 36.6-0.7 36.8-0.8 0.1-0.1 0.2 36.5 0.2 162.8h-26.2c-19.6 0-28.3-0.4-34.3-1.5-4.4-0.9-10.9-2.8-14.5-4.2-3.6-1.4-9-4.3-12-6.3-3-2-7.9-6.4-10.9-9.6-2.9-3.2-6.9-8.8-8.9-12.4-2-3.6-4.9-10.3-6.5-15-1.7-5.1-3.4-13.5-4.3-21-1.2-10.2-1.3-15-0.4-26 0.6-7.4 2-16.9 3.2-21 1.1-4.1 3.6-10.8 5.6-14.9 2.1-4 6-9.8 8.7-12.8 2.8-3 7.5-7 10.5-8.8 3-1.8 8-4.4 11-5.7 5.3-2.2 6.6-2.3 42-2.8zm95.3 0h7.9c5.6 0 7.8 0.4 7.8 1.3 0 0.6 0.2 2.8 1.1 8.2l-1.5-2.7c-0.9-1.6-2.5-3.2-3.6-3.8-1.1-0.5-3.3-1-5-1-2.1 0-3.7 0.9-5.5 3-1.4 1.7-2.5 4.3-2.5 6q0 3 3 6c2 2 4 3 6.1 3 1.9 0 3.9-0.9 5.5-2.5 1.3-1.4 2.5-3.1 2.5-3.7 0.1-0.7 0.5 1 1 3.7 0.4 2.8 0.8 64.3 0.8 136.8 0.1 72.4-0.2 131.7-0.6 131.7-0.5 0-0.6-1-0.4-2.3 0.2-1.2-0.4-3.7-1.3-5.4-0.9-1.8-2.8-3.8-4.3-4.3-1.6-0.6-4-0.8-5.5-0.5-1.6 0.3-3.7 1.7-4.9 3.3-1.4 1.8-1.9 3.8-1.7 5.9 0.3 3.1 0.1 3.3-6.2 3.3l0.3-132.7c0.3-115 0.6-133.7 1.9-139.3 0.8-3.6 2.3-8.2 3.3-10.2zm3.8 8.9c0.8-1.5 1.9-2 4.3-1.8 2.9 0.3 3.1 0.7 3.1 3.9 0 3.2-0.2 3.5-3.2 3.7-2.4 0.2-3.5-0.3-4.3-1.7-0.7-1.4-0.6-2.7 0.1-4.1zm-627.9 270.5c0.6-0.9 2.3-1.4 3.6-1.2 1.4 0.1 3 1 3.6 2 0.8 1.3 0.8 2.2 0 3.5-0.6 1-2.5 1.9-4.2 2-2.7 0.2-3.3-0.1-3.7-2.2-0.3-1.4 0-3.2 0.7-4.1zm627.6 1c0.7-1.5 2.1-2.5 3.5-2.5 1.2 0 2.8 0.5 3.5 1.3 0.7 0.7 1.2 2.4 1 3.8-0.2 1.9-0.9 2.5-3.3 2.8-1.8 0.2-3.6-0.3-4.5-1.3-1.2-1.4-1.3-2.1-0.2-4.1zm653.7-573.5c-4.9 1.6-11 3.9-13.5 5.1-2.5 1.2-7 3.9-10 6-3 2-8 6.1-11 9.1-3 2.9-7.6 8.1-10.1 11.4-2.5 3.3-6.6 9.6-9.1 14-2.5 4.4-6.1 12.2-8.1 17.5-2 5.2-4.8 14.2-6.2 20-1.3 5.7-3 15.4-3.6 21.5-0.7 6-1.2 18.2-1.2 27 0 8.8 0.6 21.4 1.2 28 0.7 6.6 2.3 16.9 3.7 23 1.4 6 3.6 14.3 5.1 18.5 1.4 4.1 4.2 11.1 6.3 15.5 2.1 4.4 5.6 10.7 7.9 14 2.2 3.3 7.4 9.3 11.4 13.3 4.1 4.2 10.4 9.3 14.7 11.8 4.1 2.4 11.3 5.6 16 7.1 7.9 2.5 9.8 2.7 26 2.7 15.3 0.1 18.7-0.2 26.5-2.3 5-1.3 12.7-4.1 17.3-6.3 6-2.8 8.8-4.7 10.2-7.1 1.9-3.1 2-5.1 2.1-57.2 0.1-29.7 0.4-55.1 0.8-56.5 0.5-1.9 1.7-2.7 5.6-3.8 2.8-0.8 6.8-1.9 9-2.6 3.2-0.9 4.1-1.7 4.3-3.6 0.2-1.4-0.3-3.1-1-3.8-1-1.1-9.1-1.3-37.5-1.3-20 0-37 0.3-37.8 0.6-0.9 0.3-1.5 1.7-1.5 4 0 2.2 0.6 3.6 1.5 4 0.8 0.2 5.5 0.9 10.3 1.5 4.8 0.6 10.4 1.5 12.5 2 3.1 0.8 4 1.6 5.2 5 1.3 3.3 1.5 11.2 1.5 47.7 0 35.7-0.3 44.9-1.5 50.3-0.9 3.5-2.6 7.9-3.8 9.7-1.2 1.8-4.6 4.4-7.7 5.9-4.8 2.3-6.7 2.7-16.1 2.8-9.2 0-11.2-0.3-16-2.4-2.9-1.4-8-4.5-11.3-7-3.3-2.5-7.8-7-10.1-10-2.2-3.1-5.2-7.3-6.5-9.5-1.4-2.2-3.3-5.8-4.3-8-1-2.2-2.7-6.5-3.8-9.5-1.1-3.1-3-9.8-4.3-15-1.3-5.3-3.2-15.4-4.2-22.5-1.5-10.2-1.9-19.2-1.9-41 0.1-24.2 0.4-30 2.3-42 1.2-7.7 3.2-17.4 4.3-21.5 1.1-4.2 2.8-9.8 3.8-12.5 1.1-2.8 3-7.3 4.4-10 1.3-2.8 3.1-6.2 3.8-7.6 0.8-1.4 3.5-5.2 6.1-8.5 2.6-3.3 7.1-7.8 10-10.1 2.9-2.3 8-5.2 11.3-6.4 4.1-1.5 8.5-2.2 14-2.3 6.3-0.1 9.4 0.4 14.5 2.4 4.7 1.7 8 3.9 11.8 7.7 3.3 3.3 6.5 8 8.7 12.5 1.9 4 4.7 11.3 6.4 16.3 1.6 4.9 4 13 5.3 17.8 1.7 6.6 2.9 9.3 4.6 10.3 1.2 0.7 3 1.1 4 0.9 0.9-0.3 2.2-1.5 2.8-2.8 0.8-1.6 1-10.9 0.5-31.9-0.5-28.2-0.7-29.8-2.7-32.5-1.2-1.6-4.6-3.8-8-5.2-3.2-1.3-10.3-3.4-15.6-4.8-8.2-2-12.2-2.3-25-2.3-13.9 0.1-16.1 0.3-24.3 2.9zm351-1.3c-2.2 0.8-5.1 1.8-6.5 2.3-1.4 0.4-4.7 2-7.5 3.5-2.7 1.5-6.5 3.9-8.4 5.4-2 1.5-6.4 5.6-9.8 9.2-3.5 3.5-8.3 9.4-10.7 13-2.4 3.5-6.2 10.3-8.4 15-2.2 4.6-5.2 11.4-6.5 15-1.3 3.5-3.4 9.8-4.5 14-1.2 4.1-3.1 12.9-4.3 19.5-1.9 10.2-2.2 15.4-2.2 35.5 0 21.1 0.2 24.9 2.6 38 1.5 7.9 4.3 19.4 6.3 25.5 2 6 5.5 14.8 7.8 19.5 2.3 4.6 6.4 11.8 9.1 16 2.7 4.1 8 10.6 11.9 14.5 3.9 3.9 8.7 8.2 10.6 9.6 1.9 1.3 5.1 3.4 7 4.5 1.9 1.1 6.4 3.1 10 4.4 5.6 2.1 8.3 2.4 18.5 2.4 10.7 0 12.8-0.3 19-2.8 3.9-1.5 9.9-4.7 13.5-7.1 3.6-2.4 9.7-7.6 13.6-11.7 3.8-4 9.2-10.7 11.9-14.8 2.7-4.2 6.8-11.4 9.1-16 2.3-4.7 5.3-12.1 6.7-16.5 1.4-4.4 3.2-10.5 4.1-13.5 0.8-3.1 2-8.9 2.6-13 0.7-4.2 1.6-10.2 2.1-13.5 0.5-3.3 0.9-15 0.9-26 0.1-15.6-0.4-22.8-2-32.5-1.1-6.9-3.2-16.8-4.7-22-1.4-5.3-4-13.1-5.8-17.5-1.8-4.4-4.4-10.3-5.9-13-1.4-2.8-3.4-6.4-4.3-8-1-1.7-3.2-5.1-4.9-7.5-1.7-2.5-5.8-7.3-9-10.6-3.2-3.4-7.9-7.7-10.4-9.6-2.5-1.9-6.3-4.5-8.5-5.8-2.2-1.2-7.1-3.3-11-4.7-5.7-1.9-8.9-2.4-17.5-2.3-6.8 0-11.9 0.6-14.5 1.6zm4.3 10.3c1.5-0.4 6.2-0.8 10.5-0.9 6 0 9.1 0.5 14 2.4 3.6 1.5 8.2 4.4 10.7 6.8 2.5 2.3 5.7 5.8 7.2 7.8 1.4 1.9 3.9 5.9 5.5 9 1.6 3 3.9 7.9 5.1 11 1.2 3 3 9.1 4.1 13.5 1.1 4.4 2.7 11.8 3.6 16.5 0.9 4.6 2.1 15.7 2.7 24.5 0.6 9.3 0.8 27.8 0.5 44.5-0.5 24-1 30.6-3.1 42.5-1.4 7.7-3.6 17.6-5 22-1.3 4.4-3.1 9.8-3.9 12-0.8 2.2-3.3 7.1-5.5 11-2.2 3.8-6.4 9.2-9.3 12-3 2.8-7.9 6.4-10.9 8-5.1 2.7-6.3 2.9-16 2.8-9.3-0.1-11-0.4-15.5-2.8-2.7-1.4-7.5-5-10.5-8-3-2.9-7.3-8.4-9.5-12.1-2.2-3.8-4.6-8.4-5.3-10.4-0.7-1.9-2.6-7.6-4.1-12.5-1.5-5-3.7-14.2-4.9-20.5-1.2-6.8-2.6-21.1-3.3-34.5-1-18.3-1-27.6 0-45.5 0.7-12.4 2.1-27.5 3.2-33.5 1.1-6.1 3.2-15.1 4.6-20 1.4-5 4.4-12.6 6.5-17 2.2-4.4 6.1-10.7 8.7-13.9 2.5-3.2 6-6.8 7.6-8.1 1.7-1.2 4.5-3.1 6.3-4 1.8-1 4.5-2.2 6-2.6zm-858.7-7.9c-1.8 0.7-2.4 1.6-2.3 3.4 0.1 1.4 1.2 3.2 2.5 4 1.2 0.7 5.6 1.9 9.7 2.7 5.9 1 8.1 1.8 10.3 4l2.7 2.9c0.1 225.6 0.1 226.5-1.9 229.2-1.7 2.3-3.7 3.1-11.3 4.8-5.1 1.1-9.9 2.6-10.6 3.3-0.7 0.6-1.2 2.2-1.2 3.4 0 1.2 0.9 2.7 2 3.3 1.2 0.6 15.4 1 36.3 0.9 18.8 0 35.3-0.3 36.5-0.7 1.3-0.4 2.5-1.5 2.8-2.5 0.2-1 0.2-2.5 0-3.5-0.4-1.3-3.1-2.3-10.8-4-6.8-1.5-11-2.9-12.3-4.3-1.9-1.9-2-3.3-2-47.7 0-37.6 0.3-46.2 1.4-48.2 0.8-1.4 3.9-6.3 6.8-10.8 3.2-4.9 5.8-8 6.6-7.7 0.7 0.2 2.3 2.6 3.7 5.2 1.4 2.6 5.5 10.4 9.1 17.3 3.6 6.8 9.9 18.8 13.9 26.5 4 7.7 8.8 16.7 10.5 20 1.8 3.3 7.1 13.4 11.8 22.5 5.1 9.5 8.7 17.7 8.7 19.5 0.1 1.8-0.8 3.8-2.2 5.1q-2.3 2.2-9 3.3c-5.1 0.8-7 1.5-7.8 3.1-0.5 1.1-1 2.4-1 3 0 0.5 0.7 1.6 1.5 2.5 1.3 1.3 10.1 1.5 66.5 1.5 41.4 0 65.8-0.4 67-1 1.1-0.6 2-2.1 2.1-3.3 0-1.2-0.6-2.8-1.3-3.4-0.7-0.7-5.4-2.2-10.5-3.3-7.7-1.7-9.6-2.5-11.3-4.8-2-2.7-2-3.7-2-115.7 0-112.1 0-113.1 2-115.8 1.7-2.3 3.6-3.1 11.3-4.8 5.1-1.1 9.8-2.6 10.5-3.3 0.7-0.6 1.3-2.2 1.3-3.4-0.1-1.4-1-2.6-2.6-3.2-1.6-0.7-26.5-1-67.7-1-35.9 0-66.3 0.3-67.6 0.7-1.2 0.4-2.5 1.4-2.7 2.3-0.3 0.8-0.2 2.3 0.2 3.2 0.5 1 1.5 2.1 2.3 2.4 0.8 0.4 4.7 1.4 8.5 2.3 5.6 1.3 7.3 2.2 8.5 4.3 1.3 2.1 1.3 3.2 0.3 6.4-0.7 2.1-5.9 11.3-11.7 20.4-5.7 9-14 22-18.3 28.7-4.3 6.7-10.5 16.5-13.8 21.7-3.3 5.2-9.4 14.9-13.5 21.5-4.1 6.6-8.2 12.2-9 12.5-0.8 0.3-1.8 0-2.2-0.7-0.5-0.7-0.7-25.5-0.5-55.1l0.2-53.8c4.3-3.8 7.6-4.9 13.5-5.9 4.7-0.7 9.4-2.1 10.4-2.9 1.3-1.1 1.7-2.3 1.3-4-0.3-1.5-1.5-2.9-2.9-3.3-1.2-0.4-17.6-0.7-36.3-0.7-18.7 0.1-35.1 0.5-36.4 1zm154.9 10.3c3-0.6 7.7-1.2 10.3-1.3 2.6 0 7.8 0.6 11.5 1.4 4.1 0.9 7.5 2.4 8.7 3.6 2 2.1 2 3.5 2 116.5 0 113.1 0 114.4-2 116.4-1.1 1-4.9 2.6-8.5 3.4-5.2 1.2-7.4 1.2-11 0.3-2.5-0.6-5.9-2.3-7.6-3.7-1.7-1.3-3.5-3.3-4-4.4-0.5-1.1-3.8-7.4-7.3-14-3.5-6.6-7.9-15-9.9-18.5-1.9-3.6-4.9-9.2-6.7-12.5-1.7-3.3-6-11.4-9.5-18-3.4-6.6-7-13.4-8-15-0.9-1.7-4-7.3-6.7-12.5-2.8-5.3-7-13.1-9.3-17.5-2.3-4.4-6.4-12.2-9.1-17.3-2.7-5.1-4.9-10.5-4.9-12 0-1.7 2.9-7.3 7.7-14.7 4.1-6.6 10.4-16.3 13.8-21.5 3.4-5.3 7.4-11.6 8.9-14 1.5-2.5 4.9-7.9 7.7-12 2.7-4.2 5.2-8.2 5.6-9 0.4-0.9 3-4.5 5.9-8 2.8-3.6 6-7.3 7-8.1 1.1-0.9 3.7-2.7 5.9-4 2.2-1.3 6.5-2.9 9.5-3.6zm88.1-10.3c-1.7 0.6-2.4 1.6-2.3 3.2 0.1 1.2 0.9 2.9 1.9 3.8 0.9 0.8 5.8 2.3 10.8 3.2 5.9 1.2 9.7 2.5 11 3.8 2 2 2 3.6 2.3 110.2 0.2 71.7 0 109.9-0.7 113.3-0.6 2.7-1.9 6.2-3 7.7-1.2 1.5-3.5 3.4-5.3 4.1-1.8 0.8-6 1.9-9.3 2.6-3.3 0.7-6.3 1.8-6.7 2.4-0.4 0.6-0.8 2.2-0.8 3.4 0 1.3 0.9 2.7 2 3.3 1.2 0.6 13.5 1 30.5 1 23.9 0 28.6-0.3 30-1.5 0.8-0.9 1.5-2.3 1.6-3.3 0-1-0.6-2.2-1.3-2.9-0.7-0.6-3.8-1.7-6.8-2.4-3-0.6-7-1.9-9-2.8-2.2-1.1-4.4-3.3-6-6.1l-2.5-4.5c0-176.3 0.3-196.9 1.3-197.2 0.7-0.2 2.5 2.3 4.1 5.9 1.6 3.4 4.8 10.2 7 15 2.3 4.8 4.1 9 4.1 9.3 0 0.2 2.7 6.1 6 13 3.3 6.8 6 12.7 6 13 0 0.2 2.1 4.8 4.7 10.2 2.5 5.4 7 15 10 21.5 2.9 6.5 7.7 17 10.7 23.5 2.9 6.5 7.4 16.1 10 21.5 2.5 5.4 4.6 10 4.6 10.3 0 0.2 2.7 6.1 6 13 3.3 6.8 6 12.7 6 13 0 0.2 2.7 6.1 6 13 3.3 6.8 6 12.7 6 13 0 0.2 2.5 5.6 5.5 12 3 6.3 6.6 12.6 8 14 1.8 1.7 3.6 2.5 6.1 2.5 2.4 0 4.3-0.8 6-2.5l2.4-2.5c0-217.9 0.2-234.2 1.5-238.8 1-3.3 2.6-6.1 4.3-7.5 1.5-1.2 5.4-2.9 8.7-3.6 3.3-0.8 7.3-1.9 8.8-2.5 1.5-0.6 3-1.7 3.3-2.4 0.2-0.7 0.1-2-0.3-2.9-0.4-0.9-1.8-2-3-2.5-1.3-0.5-14.4-0.8-29.3-0.8-16 0-27.8 0.4-29 1-1.2 0.6-2 2-2 3.7 0 2.1 0.6 3 2.7 3.9 1.6 0.7 5.3 1.8 8.3 2.4 3.8 0.9 6.5 2.3 8.6 4.4 1.8 1.7 3.7 4.9 4.3 7.1 0.8 2.8 1.1 29.4 1.1 89.7 0 77.1-0.1 85.7-1.5 85.5-1-0.1-3.9-5.4-7.4-13.2-3.2-7.2-6.9-15.5-8.3-18.5-1.4-3.1-4-8.7-5.8-12.5-1.8-3.9-4.9-10.9-7-15.5-2-4.7-5.1-11.6-6.9-15.3-1.7-3.7-4.4-9.6-6-13-1.5-3.4-5.9-13-9.6-21.2-3.6-8.3-8.3-18.4-10.2-22.5-1.9-4.2-6.4-14.1-10-22-3.6-8-7.8-17.5-9.5-21-1.6-3.6-4-8.8-5.4-11.5-1.3-2.8-3.3-6.2-4.5-7.5-1.2-1.4-3.8-2.9-5.8-3.3-2-0.4-12.8-0.7-24.1-0.7-11.3 0.1-21.6 0.5-22.9 1zm355.7-0.4c-0.9 0.3-2 1.7-2.3 3.2-0.4 1.7-0.2 3.1 0.7 3.9 0.7 0.7 5.4 2.1 10.3 3.2 6.1 1.4 9.8 2.8 11.3 4.3l2.3 2.3-0.1 226.5c-4.9 5.3-7.3 6.4-14 8.1-4.7 1.1-9 2.8-9.7 3.7-0.7 0.9-1.3 2.2-1.3 2.9 0 0.7 0.7 1.9 1.5 2.8 1.3 1.2 7 1.5 39.3 1.4 20.7 0 41.8-0.4 46.7-0.9 5-0.6 12.4-2.1 16.5-3.5 4.1-1.5 10.4-4.2 14-6.2 3.6-1.9 8.5-5.2 11-7.1 2.5-2 6.9-6.1 9.8-9.2 2.9-3 7.3-8.5 9.7-12 2.5-3.6 6-9.7 7.9-13.5 1.9-3.9 4.6-10.4 6-14.5 1.4-4.2 3.2-10.2 4.2-13.5 0.9-3.3 2.5-11.9 3.5-19 1.3-8.8 1.9-18.8 1.9-30.8 0-12.4-0.6-21.9-1.9-31.5-1.1-7.6-3.1-17.8-4.5-22.7-1.3-5-3.3-11.5-4.4-14.5-1-3.1-3.9-9.3-6.3-13.9-2.4-4.7-4.8-9.2-5.4-10.1-0.5-0.9-2.8-4-5-7-2.2-3-7.4-8.6-11.6-12.5-4.2-3.9-10.8-8.7-14.5-10.8-3.8-2-10.7-4.9-15.4-6.4l-8.5-2.7c-69.7-0.4-90.7-0.3-91.7 0zm66.2 11.4c1.9-0.5 6-0.9 9-0.9 3-0.1 8 0.3 11 0.7 3 0.5 8.4 2.3 12 4 3.6 1.7 8.1 4.6 10 6.4 1.9 1.9 5.1 5.1 7 7.3 1.9 2.2 5.4 7.6 7.7 12 2.3 4.4 5.6 12.2 7.3 17.5 1.7 5.2 4.3 15.5 5.8 23 2.6 13.1 2.6 14.5 2.7 50 0 35.6-0.1 36.8-2.7 50-1.5 7.4-3.4 15.3-4.2 17.5-0.8 2.2-1.5 4.6-1.6 5.5 0 0.8-2.2 6-4.9 11.5-2.7 5.5-7 12.5-9.5 15.7-2.5 3.2-6.9 7.5-9.8 9.5-2.9 2.1-7.5 4.8-10.3 6-2.7 1.2-7.3 2.6-10.2 3.2-2.9 0.6-7.6 1-10.5 1-2.9 0-7.3-0.5-9.8-1-2.5-0.6-5.9-2-7.7-3.2-1.9-1.3-4.1-4.2-5.3-7-1.9-4.7-2-6.7-2-213.2l2.4-4.5c1.3-2.5 4.1-5.8 6.2-7.3 2.2-1.6 5.5-3.2 7.4-3.7zm305.8-11.4c-0.9 0.3-2 1.7-2.3 3.2-0.4 1.7-0.2 3.1 0.7 3.9 0.7 0.7 5.6 2.2 10.8 3.3q9.5 2.1 11.8 4.3c2.1 2 2.3 2.9 2.2 14.7 0 6.8-0.6 27.1-1.5 45-0.8 17.8-1.9 48.7-2.5 68.5-0.5 19.8-1.6 49.7-2.4 66.5-0.9 19.7-1.8 31.3-2.6 33-0.7 1.3-2 3.3-2.9 4.3-0.8 1-2.9 2.4-4.6 3.1-1.6 0.7-5.7 1.8-9 2.5-3.3 0.7-6.3 1.8-6.7 2.4-0.4 0.6-0.8 2.2-0.8 3.4 0 1.3 0.9 2.7 2 3.3 1.2 0.6 13.4 1 30 1 16.7 0 28.8-0.4 30-1 1.1-0.6 2-2 2-3.3 0-1.2-0.3-2.8-0.7-3.4-0.4-0.6-3.5-1.7-6.8-2.4-3.3-0.7-7.3-1.8-9-2.5-1.6-0.7-3.7-2.1-4.6-3.1-0.9-1-2.3-3.9-3-6.3-1-3.7-1-12 0-45 0.7-22.3 1.9-55.4 2.7-73.5 0.8-18.2 1.7-44.3 2-58 0.3-13.8 0.7-27.4 1-30.3 0.2-3.1 0.9-5.1 1.5-5 0.6 0.1 3.1 8.4 5.5 18.3 2.5 9.9 5.3 21.3 6.4 25.5 1 4.1 5.5 22.1 9.9 40 4.4 17.8 11.6 47.3 16.1 65.5 4.5 18.1 10.6 42.9 13.6 55 3.3 13 6.2 22.7 7.2 23.7 1 1 2.6 1.8 3.7 1.8 1.1 0 3-0.9 4.3-2 1.2-1.1 2.5-3.5 2.8-5.3 0.3-1.8 1.4-7.1 2.6-11.7 1.1-4.7 2.9-12.1 4-16.5 1.1-4.4 2.9-11.4 3.9-15.5 1-4.2 2.7-11.1 3.8-15.5 1.1-4.4 2.9-11.6 4-16 1.1-4.4 3.9-15.7 6.1-25 2.3-9.4 5-20.5 6.1-24.8 1.1-4.3 2.8-11.2 3.9-15.5 1.1-4.3 2.9-11.5 4-16 1.1-4.5 2.9-11.7 4-16 1.1-4.3 4-16.3 6.5-26.7 2.6-10.5 5.1-20.1 5.6-21.3 0.5-1.2 1.4-2.2 1.9-2.2 0.6 0 1 3.9 1 9.7 0 5.4 0.9 36.3 2 68.8 1 32.4 2.4 76.1 3 97 0.6 20.9 0.8 38.9 0.4 40-0.4 1.1-1.4 2.8-2.3 3.7-0.9 1.1-5.4 2.6-11.1 3.9-5.6 1.2-10 2.7-10.7 3.7-0.7 0.9-1.3 2-1.3 2.4 0 0.4 0.9 1.7 2 2.8 1.9 1.9 3.4 2 37.5 2 34.2 0 35.6-0.1 37.5-2 1.4-1.4 1.8-2.7 1.3-4.1-0.4-1.1-2.1-2.4-3.8-2.9-1.6-0.6-6.2-1.7-10.2-2.5-6-1.3-7.6-2-9-4.3-1.2-2-1.9-6.3-2.4-15.2-0.5-6.9-1.3-30.5-1.9-52.5-0.5-22-1.4-49.3-2-60.5-0.5-11.3-1.4-38.1-2-59.5-0.6-21.5-0.8-40.2-0.5-41.5 0.3-1.4 1.8-3.3 3.3-4.2 1.5-0.9 5.9-2.1 9.7-2.8 3.9-0.7 8-1.9 9.3-2.7 1.3-0.8 2.2-2.3 2.2-3.8 0-1.8-0.7-2.9-2.5-3.5-1.4-0.6-11.9-1-24.2-1-12 0-23.5 0.4-25.7 0.8-2.6 0.4-4.5 1.6-6 3.5-1.5 2-8.8 29.8-25.3 96-12.8 51.2-23.5 93.3-23.8 93.4-0.3 0.1-0.8 0.1-1.2-0.1-0.4-0.2-1.3-2.4-2-4.8-0.6-2.4-3-11.8-5.1-20.8-2.2-9.1-5.8-24-8-33-2.2-9.1-5.9-24.2-8.1-33.5-2.3-9.4-5.9-24.2-8-33-2.2-8.8-5.8-23.9-8.1-33.5-2.3-9.7-4.8-19.9-5.6-22.8-0.8-2.9-2.4-6.4-3.6-7.8-1.3-1.4-4.1-3-6.3-3.5-2.2-0.5-14.3-0.9-27-0.8-12.6 0-23.7 0.3-24.7 0.5zm-776.4 358.4c-1.3 0.5-2.6 3.1-4.1 8.6-1.2 4.3-6.7 26.3-12.3 48.9-5.5 22.5-10.9 44.6-12 49-1.2 4.4-2.9 11.3-4 15.5-1 4.1-6.7 26.8-12.5 50.5-5.8 23.6-11.6 45.2-12.8 48-1.3 2.7-3.8 6.2-5.7 7.6-1.9 1.5-5.3 3-7.5 3.4-2.2 0.4-5 1.3-6.2 2.1-1.3 0.7-2.3 2.3-2.3 3.4 0 1.2 1 2.4 2.5 3 1.4 0.5 12.6 0.9 25.8 0.9 12.8 0 24.2-0.3 25.5-0.7 1.2-0.4 2.4-1.5 2.7-2.5 0.3-1-0.3-2.6-1.5-3.7-1.1-1.1-3.2-2-4.7-2-1.5 0-4.4-0.5-6.3-1.1-1.9-0.5-4.5-2-5.8-3.2-1.9-1.9-2.2-3.3-2.2-8.7 0-3.6 0.9-9.7 2-13.5 1-3.9 2.9-10.9 4-15.5 1.2-4.7 3.1-12.1 4.3-16.5 1.3-5.1 3-9.1 4.7-10.8l2.5-2.8 44.9 0.6c3.2 4.6 4.7 8.5 5.4 11.5 0.7 3 2.2 8.8 3.2 13 1 4.1 2.8 11.5 4 16.5 1.2 4.9 2.8 11.4 3.6 14.5 0.8 3 1.4 6.9 1.4 8.7 0 2.3-0.7 3.7-2.2 4.8-1.3 0.8-5 1.9-8.3 2.3-3.3 0.4-6.5 1-7.2 1.4-0.7 0.4-1.3 2.1-1.3 3.8 0 2.3 0.5 3.1 2.3 3.4 1.2 0.3 29.3 0.5 62.5 0.5 37.8 0.1 61.2-0.3 62.7-0.9 1.6-0.7 2.5-1.8 2.5-3.3 0.1-1.2-0.5-2.8-1.2-3.5-0.7-0.7-2.4-1.3-3.8-1.3-1.4 0-6.5-0.9-11.5-2-6.5-1.5-9.6-2.8-11.2-4.5l-2.3-2.4v-91c5.3-4.4 7.2-5 10.8-5.1 2.6 0 7.4 0.5 10.7 1.2 3.3 0.6 7.6 1.9 9.5 2.9 1.9 1 4.7 3.1 6.2 4.6 1.4 1.6 3.5 4.7 4.6 6.9 1.1 2.2 2.9 6.9 4 10.5 1.1 3.5 2.8 9.8 3.8 14 0.9 4.1 2.3 10.6 3 14.5 0.7 3.8 2.2 11.2 3.4 16.5 1.1 5.2 2.7 11.7 3.4 14.5 0.8 2.7 2.7 7.7 4.2 11 1.6 3.3 4.9 8 7.4 10.5 2.5 2.6 6.8 5.7 9.5 6.9 3 1.4 7.8 2.5 12 2.8 4.4 0.3 8.5 0 11-0.8 2.2-0.7 10.9-1.5 19.3-1.9 12.1-0.4 15.5-0.9 16.2-2 0.6-0.9 1-1.8 1-2 0-0.3-0.5-1.3-1.2-2.3-0.8-1.1-3.4-2.1-6.8-2.6-3-0.5-6.8-1.6-8.5-2.4-1.6-0.8-3.5-2.7-4.2-4.1-0.7-1.5-1.3-3.9-1.3-5.4 0-1.5 0.7-5.7 1.4-9.2 0.8-3.6 3.5-14.6 6.1-24.5 2.5-9.9 5.1-19.4 5.8-20.9 0.7-1.6 2.1-3.6 3.2-4.3 1.6-1 7-1.3 23.5-1.3 20.8 0 21.6 0.1 24.1 2.2 1.9 1.7 3 4.6 4.8 11.8 1.2 5.2 3.2 13.1 4.3 17.5 1.1 4.4 2.8 11.1 3.9 15 1 3.8 2.1 9.4 2.5 12.5 0.4 3 0.4 6.7 0.1 8.2-0.5 2-1.6 3-3.9 3.8-1.8 0.5-4.9 1-6.8 1-1.9 0-4.5 0.6-5.7 1.4-1.3 0.9-2.3 2.5-2.3 3.6 0 1.1 0.9 2.4 2 3 1.2 0.6 13.7 1 31 1 17 0 30.1-0.5 31.5-1 1.5-0.6 2.5-1.8 2.5-3 0-1.1-1-2.7-2.2-3.6-1.3-0.8-3.1-1.5-4-1.5-1 0.1-3.9-0.9-6.5-2-2.9-1.2-5.6-3.2-6.9-5.2-1.1-1.8-3-6.6-4.1-10.7-1.2-4.2-3-11.1-4.1-15.5-1.2-4.4-4.8-19.3-8.2-33-3.3-13.8-6.9-28.4-8-32.5-1-4.2-2.8-11.1-3.9-15.5-1.1-4.4-3-11.9-4.1-16.5-1.2-4.7-3.1-12.1-4.2-16.5-1.1-4.4-2.8-11.4-3.8-15.5-1.1-4.2-2.8-11.1-3.9-15.5-1.1-4.4-2.9-11.9-4.1-16.5-1.2-4.7-3-12.1-4.1-16.5-1.1-4.4-2.6-10.4-3.4-13.3-0.9-3.3-2.3-5.8-3.7-6.7-1.3-0.7-3.1-1.1-4.2-0.7-1 0.4-2.5 2-3.2 3.7-0.7 1.6-3.6 12.4-6.3 24-2.8 11.5-5.7 23.2-6.5 26-0.8 2.7-1.7 6.5-2.1 8.5-0.3 1.9-1.3 5.7-2.1 8.5-0.7 2.7-5.2 20.7-9.9 40-4.7 19.2-9.2 37.4-10 40.5-0.8 3-2.2 8.4-3.1 12-0.9 3.5-2.2 8.9-2.8 12-0.7 3-1.8 7.3-2.4 9.5-0.6 2.2-2.5 9.6-4.2 16.5-1.6 6.8-3.7 14.5-4.7 17-0.9 2.4-2.7 5.9-3.9 7.7-1.3 1.8-3.3 3.3-4.4 3.3-1.1 0-3.4-1.5-5.1-3.3-1.7-1.8-4.1-5.5-5.3-8.2-1.2-2.8-3.1-8.9-4.3-13.5-1.1-4.7-3.1-13.3-4.3-19-1.2-5.8-3.3-14.9-4.6-20.3-1.3-5.4-3.7-12.6-5.3-16-1.6-3.4-4.9-8.5-7.3-11.1-2.3-2.7-6.6-6.2-9.5-7.8-2.9-1.6-5.3-3.3-5.3-3.8 0-0.6 4-2.9 8.8-5.2 7.3-3.5 10.2-5.7 17.7-13.3 5-5 10.3-11.4 11.8-14.3 1.5-2.9 3.7-7.8 4.8-11 1.4-3.9 2.3-9.2 2.6-16.2 0.4-7.9 0.1-12.2-1.1-17-0.9-3.6-3.1-9.5-4.8-13-2.1-4.1-5.9-9.2-10.3-13.7-5-5-9.1-8.2-14.5-10.8-4.1-2.1-10.2-4.7-13.5-5.8-5.6-2-8.6-2.1-48.7-2.4-27.2-0.2-43.5 0-44.8 0.7-1.1 0.5-2 1.7-2 2.7 0 1 0.5 2.3 1.2 2.9 0.7 0.7 4.7 2 8.8 2.8 4.1 0.9 8.6 2.4 10 3.4 1.4 1.1 2.8 3 3.2 4.3 0.3 1.3 0.7 47 0.7 101.6 0.1 80-0.1 99.9-1.2 102.5-0.9 2.3-2.5 3.8-5.2 4.9-2.2 0.9-5.6 2-7.5 2.3-2.3 0.5-4.8 0.2-7.5-0.9-2.2-0.9-5-2.6-6.3-3.9-1.2-1.2-2.9-3.9-3.6-6.1-0.8-2.2-2.4-7.9-3.6-12.5-1.1-4.7-3-12.1-4.1-16.5-1.1-4.4-2.8-11.5-3.9-15.8-1.1-4.3-2.8-11.2-3.9-15.5-1-4.3-2.8-11.5-4-16-1.1-4.5-3-11.8-4.1-16.2-1.1-4.4-2.9-11.6-4-16-1.1-4.4-2.9-11.6-4-16-1.1-4.4-2.9-11.8-4-16.3-1.1-4.5-2.9-11.7-4-16-1.1-4.3-2.9-11.3-4-15.7-1.1-4.4-2.9-11.8-4-16.3-1.1-4.5-2.9-11.6-4-15.7-1-4.2-2.1-8.9-2.4-10.5-0.3-1.7-1.1-3.5-1.8-4.1-0.7-0.6-2-1.4-2.9-1.7-0.9-0.2-2.5-0.2-3.5 0.3zm127.6 12.9c1.4-0.4 4.4-0.8 6.8-0.9 2.3 0 7.7 0.7 12 1.6 4.2 0.8 10.4 2.9 13.7 4.6 3.3 1.7 8.1 5.1 10.6 7.7 2.4 2.5 5.8 7.3 7.4 10.6 1.5 3.3 3.4 9.1 4.1 13 0.7 3.8 1.3 10.1 1.4 14 0 3.8-0.5 9.9-1 13.5-0.6 3.5-2.1 9.2-3.2 12.5-1.2 3.3-3.3 7.8-4.8 10-1.5 2.2-4.2 5.5-6.1 7.3-1.8 1.9-6.1 4.8-9.4 6.4-5.2 2.6-7.3 3.1-16.5 3.5-7.2 0.3-11.7 0-14.4-0.9-2.3-0.8-5.2-2.9-10.1-9l-0.2-42.4c-0.2-36.1-0.1-42.9 1.2-45.4 0.8-1.7 2.5-3.6 3.8-4.2 1.2-0.6 3.3-1.5 4.7-1.9zm-140.8 78.7c6.3-24.8 9.5-36.1 9.9-34.5 0.4 1.3 1.7 6.6 2.9 11.9 1.2 5.2 3 12.8 4 17 1 4.1 2.8 11.5 4 16.5 1.2 4.9 3 12.6 4 17 1 4.4 2.9 11.8 4.1 16.5 1.2 4.6 1.9 9.2 1.6 10.2-0.6 1.6-2.5 1.7-43.2 1.3l0.1-3c0.1-1.7 0.9-6 1.7-9.5 0.9-3.6 5.8-23.1 10.9-43.4zm287.4-31.4c0.3-1.8 1-3.2 1.6-3.2 0.6 0 1.6 2.3 2.1 5.2 0.5 2.9 2.2 10.9 3.9 17.8 1.6 6.8 4.3 18.1 5.9 25 1.7 6.8 3.9 16.3 5 21 1.2 4.6 2.7 10.7 3.4 13.5 0.8 3.1 1 5.6 0.4 6.7-0.8 1.6-2.9 1.8-42.9 1.8v-3c0-1.7 0.9-6.3 2-10.3 1-4 2.8-11 4-15.5 1.1-4.5 2.9-11.8 4-16.2 1.1-4.4 2.9-11.6 4-16 1.1-4.4 2.9-11.5 4-15.8 1.1-4.3 2.2-9.2 2.6-11zm-470.5-56.1c-0.8 0.7-1.4 2-1.3 2.8 0.1 0.9 0.7 2.1 1.4 2.8 0.7 0.6 4.2 1.8 7.8 2.5 3.6 0.8 7.8 2 9.5 2.8q2.9 1.5 3.7 4.7c0.5 1.8 0.7 49 0.6 104.8-0.3 100.3-0.3 101.6-2.3 103-1.1 0.8-4.7 2.1-8 2.9-3.3 0.8-7.2 1.7-8.7 2-2 0.4-2.9 1.3-3.4 3.3-0.3 1.6-0.1 3.2 0.6 3.8 0.7 0.6 14.7 1.1 36.3 1.3 23 0.2 36.2-0.1 38-0.8 2-0.8 2.7-1.7 2.7-3.5q0-2.5-2.2-3.4c-1.3-0.5-7-1.9-12.8-3.1-8.1-1.7-11-2.7-12.7-4.6l-2.3-2.4 0.5-88.5c29.5-1 40.5-1.8 43.5-2.5 3-0.7 7.8-2.2 10.5-3.4 2.8-1.1 6.9-3.2 9.1-4.6 2.3-1.4 6-4.2 8.3-6.3 2.2-2.1 5.8-5.9 7.8-8.5 2-2.6 4.9-7.7 6.5-11.2 1.6-3.6 3.6-9.7 4.4-13.5 0.8-3.9 1.4-11 1.4-15.8 0-4.8-0.6-11.8-1.4-15.5-0.8-3.7-2.4-9.2-3.6-12.2-1.2-3.1-4.1-8.2-6.4-11.5-2.4-3.3-6.5-8.1-9.2-10.5-2.8-2.5-7.7-6-10.9-7.7-3.3-1.8-8.9-4.2-12.5-5.5-6.2-2.1-8-2.2-50-2.6-33.9-0.3-43.8-0.1-44.9 0.9zm56.4 9.4c2.8-0.8 6.9-1.4 9.3-1.5 2.3 0 7.4 0.6 11.2 1.5 3.9 0.8 9.2 2.5 11.8 3.8 2.6 1.3 7 4.6 9.7 7.3 2.8 2.8 6.2 7.4 7.7 10.4 1.5 3 3.6 8.8 4.8 13 1.5 5.7 2 10.4 2 20 0 9.5-0.5 14.4-2.1 20.5-1.1 4.4-3.1 10-4.4 12.5-1.3 2.4-4 6.4-6.1 8.9-2.1 2.4-5.7 5.6-7.9 7.1-2.2 1.4-6.6 3.6-9.7 4.8-4.3 1.6-8 2.2-14.5 2.1-7.2 0-9.5-0.4-12.7-2.2-2.1-1.2-4.8-3.5-6-5.1-2-2.7-2.1-3.6-2.1-50.2 0-46 0.1-47.4 2-49.5 1.1-1.1 4.3-2.7 7-3.4zm586.1-9c-1 0.9-1.7 1.8-1.6 2 0 0.3 0.5 1.4 1 2.5 0.7 1.2 2.4 2.2 4.8 2.5 2 0.4 6.1 1.3 9 2 3.2 0.9 5.8 2.3 6.7 3.7 1.4 2 1.5 15.1 1.5 104.8 0 84.5-0.2 102.8-1.3 104.5-0.8 1.2-3.9 2.6-7.8 3.7-3.5 0.9-7.6 1.9-9.1 2.2-1.5 0.3-3.2 1.5-3.8 2.6-0.8 1.5-0.5 2.4 1 4 1.9 1.9 3.4 2 37.3 2 26.8 0 35.7-0.3 37.1-1.3 1.1-0.8 1.7-2.2 1.5-3.6-0.2-1.4-1.1-2.8-1.9-3.2-0.8-0.4-5.5-1.5-10.5-2.4-4.9-0.9-10.5-2.4-12.5-3.4-2-1-3.7-2.7-4.1-4.1-0.4-1.4-0.7-21.4-0.8-44.5-0.1-31.8 0.2-42.3 1.1-43.3 0.9-0.9 5.8-1.3 17.3-1.3 11.3 0 18.5-0.5 24.5-1.8 4.9-1 12-3.4 16.5-5.7 5.8-2.9 9.9-5.9 15-11 5.3-5.2 8.1-9.1 11.2-15.5 2.8-5.7 4.6-11.3 5.7-17.4 0.9-5 1.6-11.2 1.6-13.8 0-2.6-0.8-9.1-1.9-14.5-1.3-7.1-3-11.9-6-17.7-2.4-4.4-5.9-9.8-7.9-12-2-2.2-5.6-5.7-8.1-7.8-2.5-2.1-7.3-5.1-10.6-6.7-3.3-1.6-8.5-3.7-11.5-4.7-4.8-1.6-10.4-1.8-48.6-2.1-38.8-0.3-43.3-0.2-44.8 1.3zm56.4 9c2.5-0.8 6.4-1.4 8.8-1.5 2.3 0 7.7 0.7 12 1.5 4.7 1 9.9 2.9 13.2 4.9 3 1.8 7.2 5.3 9.3 7.7 2.1 2.4 5 6.4 6.4 8.9 1.3 2.4 3.4 7.8 4.6 12 1.6 5.9 2 10.3 2 21.5 0 11.6-0.3 15.2-2.2 21.5-1.3 4.1-3.5 9.6-4.9 12.3-1.5 2.6-4.3 6.4-6.2 8.5-1.9 2.1-5.1 4.9-7 6.2-1.9 1.4-6.4 3.5-10 4.8-5.3 1.9-8.1 2.2-15.6 2-8.4-0.3-9.6-0.6-13.4-3.3-2.9-2.1-4.7-4.3-5.7-7-1.1-3.3-1.3-12.9-0.8-93.4l2.5-2.6c1.4-1.5 4.5-3.3 7-4zm-1136-379.2c-1.7 1.7-2.3 3.3-2.2 6 0.2 2.6 1 4.4 3 6.2 1.6 1.5 3.9 2.5 5.7 2.5 1.7 0 4.3-0.9 5.8-2 2.2-1.7 2.7-2.8 2.8-6.3 0-3.1-0.6-4.8-2.3-6.5-1.6-1.5-3.5-2.2-6.4-2.2-2.9 0-4.7 0.6-6.4 2.3zm3.6 3.2c0.9-0.9 2.6-1.5 3.7-1.3 1.1 0.1 2.5 1 3.1 1.9 0.8 1.3 0.8 2.4-0.1 4.3-0.7 1.5-2.1 2.6-3.3 2.6-1.1 0-2.7-0.7-3.5-1.5-0.8-0.9-1.5-2.2-1.5-3-0.1-0.8 0.6-2.1 1.6-3zm15.4-0.6c-1.7 1.7-2.9 4.1-2.9 5.7 0 1.7 0.9 3.9 2.4 5.6 2 2.1 3.4 2.8 6.6 2.8 3 0 4.7-0.7 6.5-2.5 1.6-1.7 2.4-3.7 2.4-6 0-2.4-0.8-4.3-2.5-6-1.7-1.8-3.6-2.5-6.1-2.5-2.6 0-4.3 0.7-6.4 2.9zm3 2.3c0.8-0.7 2.1-1.3 3-1.3 0.8 0 2.1 0.6 2.8 1.3 0.7 0.7 1.3 2.5 1.2 4 0 2.1-0.5 2.9-2.5 3.3-1.4 0.2-3.2-0.1-4-0.8-0.9-0.7-1.6-2.2-1.7-3.3-0.1-1.1 0.5-2.6 1.2-3.2zm254 246.5c-1.1 1.5-2.3 3.7-2.7 4.8-0.3 1.1 0.3 3.4 1.4 5.2 1 1.8 2.8 3.7 4.1 4.2 1.2 0.6 3.1 1.1 4.2 1.1 1.1 0 3.4-1.2 5-2.5 2.5-2.1 3-3.3 3.1-6.8 0-3.1-0.6-4.8-2.3-6.5-1.6-1.6-3.5-2.2-6.5-2.2-3.4 0-4.5 0.5-6.3 2.7zm3.6 2.3c1.1-0.5 2.4-1 2.9-1 0.6-0.1 1.9 0.8 3 1.9 1.8 1.8 1.9 2.4 0.8 4.6-0.8 1.5-2.1 2.5-3.5 2.5-1.3 0-2.8-0.6-3.5-1.3-0.7-0.7-1.4-2.2-1.5-3.4-0.1-1.3 0.7-2.7 1.8-3.3zm-616.3 8.7c-1.2 1-2.5 3.1-2.8 4.8-0.4 1.6-0.1 4.2 0.5 5.7 0.5 1.5 2.5 3.5 4.3 4.4 2.8 1.5 3.6 1.5 6.6 0.3 2-0.9 4.1-2.7 4.9-4.4 0.9-1.8 1.2-4.2 0.8-5.8-0.3-1.5-1.6-3.7-2.8-4.8-1.4-1.2-3.6-2-5.8-1.9-1.9 0-4.5 0.8-5.7 1.7zm4 2.9c0.7-0.3 1.3-0.5 1.5-0.6 0.1 0 1 0.3 2 0.8 0.9 0.5 2.1 1.7 2.5 2.8q0.8 1.9-1 3.6c-1 1-2.5 1.8-3.3 1.8-0.8 0-2.3-0.9-3.2-2-1.3-1.5-1.5-2.5-0.8-4 0.6-1 1.6-2.1 2.3-2.4zm-7.8 37.7c-1.1 0.7-2.6 2.7-3.3 4.3-1.2 2.4-1.2 3.4 0 6.2 0.7 1.8 2.3 4 3.6 4.7 1.2 0.8 3.5 1.5 5 1.5 1.5 0 3.9-1.1 5.5-2.5 2.1-2 2.7-3.5 2.7-6.5 0-3-0.6-4.7-2.5-6.5-1.6-1.7-3.6-2.5-5.7-2.6-1.8 0-4.2 0.6-5.3 1.4zm1.6 5.2c0.6-0.9 2.2-1.5 3.5-1.5 1.6 0 2.9 0.8 3.7 2.4 1 2 1 2.7-0.3 4.1-0.8 0.8-2.7 1.5-4.2 1.5-2.1 0-2.9-0.6-3.3-2.5-0.3-1.4 0-3.2 0.6-4zm-2.3 18.3c-2.4 2.2-3.2 3.7-3.2 6.4-0.1 2.5 0.7 4.4 2.4 6.2 1.9 2 3.5 2.6 6.5 2.6 2.9 0 4.7-0.7 6.3-2.3 1.5-1.6 2.2-3.5 2.2-6.5 0-3.5-0.5-4.7-3-6.7-1.6-1.4-4.1-2.5-5.5-2.5-1.3 0-3.9 1.2-5.7 2.8zm2.7 3.7c0.9-0.8 2.3-1.5 3.1-1.5 0.8 0 2.1 0.6 2.9 1.5 0.8 0.8 1.5 2.1 1.5 3 0 0.8-0.7 2.1-1.5 3-0.9 0.8-2.3 1.5-3 1.5-0.8 0-2.2-0.7-3-1.5-0.8-0.9-1.5-2.2-1.5-3-0.1-0.8 0.6-2.1 1.5-3zm627.8-5.2c-1.2 0.6-2.9 2.6-3.8 4.2-1.1 1.8-1.5 4.1-1.1 6 0.3 1.6 1.7 3.7 3.1 4.7 1.4 1 4.1 1.8 6 1.8 2.7 0 4.1-0.8 6-3 1.4-1.7 2.5-3.9 2.5-5 0-1.1-0.6-3.3-1.4-4.8-0.7-1.5-2.5-3.3-4-4-1.4-0.7-3.1-1.2-3.8-1.2-0.7 0-2.3 0.6-3.5 1.3zm0.2 5.2c0.9-0.8 2.4-1.6 3.3-1.6 1 0 2.3 0.6 3 1.3 0.7 0.7 1.3 2.3 1.2 3.5 0 1.2-0.9 2.7-2 3.3-1.4 0.7-2.7 0.5-4.5-0.5-1.4-0.9-2.5-2.2-2.5-3-0.1-0.8 0.6-2.1 1.5-3zm-629.5 17.9c-1.4 0.7-3.1 2.6-3.8 4.2-1.2 2.4-1.2 3.4 0 6.3 0.7 1.8 2.2 4 3.3 4.7 1.1 0.8 3.5 1.4 5.3 1.4q3.3-0.1 5.8-2.5c1.6-1.7 2.4-3.7 2.4-6 0-2-0.3-4.3-0.7-5.2-0.4-0.9-2-2.2-3.5-3-1.5-0.7-3.6-1.3-4.5-1.3-1 0-2.9 0.6-4.3 1.4zm0.6 6c0.5-2.2 1.1-2.5 3.7-2.3 1.6 0.2 3.5 1.1 4.1 2.1 0.8 1.3 0.8 2.2 0 3.5-0.6 1-2.2 1.9-3.5 2.1-1.3 0.2-2.9-0.4-3.6-1.3-0.7-0.8-1-2.7-0.7-4.1zm626.4-4.5c-1.8 1.8-2.8 4-2.9 6 0 1.9 0.9 4.2 2.4 6.1 1.8 2.1 3.4 3 5.8 3 1.8 0 4.5-0.9 6-2 1.5-1.2 2.9-3.3 3.2-5 0.3-1.7-0.1-4.4-1-6-0.8-1.7-2.4-3.5-3.5-4-1.1-0.6-3.1-1-4.6-1-1.5 0-3.7 1.1-5.4 2.9zm2.1 4c0.8-1.5 1.9-2 4.3-1.8 2.7 0.3 3.2 0.8 3.4 3.4 0.2 1.7-0.2 3.3-1 3.7-0.7 0.4-2.3 0.7-3.5 0.7-1.3 0-2.7-0.8-3.3-1.9-0.7-1.4-0.6-2.7 0.1-4.1zm-629.2 17.1c-0.9 0.6-2.4 2.5-3.3 4.3-1 1.7-1.5 4.1-1.2 5.2 0.3 1.1 1.4 3 2.6 4.2 1.5 1.7 3.2 2.3 6.3 2.3 3.1 0 4.8-0.6 6.5-2.3 1.5-1.5 2.2-3.5 2.2-6.2 0.1-2.9-0.6-4.7-2.2-6.3-1.5-1.4-3.5-2.2-5.8-2.2-1.9 0-4.2 0.5-5.1 1zm0.9 5.5c0.8-1.7 2-2.5 3.7-2.5 1.6 0 2.9 0.8 3.6 2.2 0.8 1.6 0.8 2.9 0 4.5-0.8 1.6-1.8 2.2-3.7 2-1.5-0.1-3.2-1-3.8-1.9-0.8-1.3-0.8-2.4 0.2-4.3zm626.2-4.6c-2 1.6-2.5 2.8-2.5 6.4 0 3.1 0.6 5.1 2 6.6 1.4 1.4 3.2 2.1 5.8 2.1 2 0 4.5-0.4 5.5-0.9 0.9-0.5 2.3-2.2 3.1-3.8 0.7-1.5 1.1-4.1 0.7-5.6-0.3-1.5-1.6-3.7-2.8-4.8-1.4-1.2-3.6-2-5.8-1.9-1.9 0-4.6 0.9-6 1.9zm2.4 4.1c1.1-1.1 2.6-2.1 3.5-2.1 0.9 0 2.2 0.5 2.9 1.3 0.7 0.7 1.2 2.3 1 3.7-0.1 1.3-1.1 2.8-2 3.5-1.3 0.8-2.2 0.8-3.5-0.1-1-0.6-2.2-1.8-2.8-2.7-0.7-1.1-0.5-2.1 0.9-3.6zm-628.4 17c-1.4 0.5-3.4 2.5-4.5 4.4-1.9 3.4-1.9 3.6-0.2 7 1 2 2.9 4 4.5 4.6 1.5 0.6 4.2 0.8 6 0.5 1.8-0.3 3.9-1.6 4.7-2.8 0.9-1.2 1.5-3.8 1.5-5.7 0-2-0.6-4.3-1.3-5.2-0.6-0.9-2.4-2.1-3.9-2.8-1.5-0.6-3.1-1-3.5-1-0.4 0.1-1.9 0.5-3.3 1zm0.1 5.5c0.6-0.9 2.2-1.5 3.5-1.5 1.4 0 2.8 0.8 3.4 2 0.6 1.1 0.8 2.9 0.5 4-0.3 1.1-1.3 2.2-2.2 2.5-1 0.3-2.6 0.3-3.5 0-1-0.3-2-1.7-2.3-3-0.3-1.4 0-3.2 0.6-4zm627.2-4.5c-1.8 1.1-3.5 3-3.9 4.2-0.3 1.2-0.3 3.6 0.1 5.3 0.4 1.6 1.2 3.5 1.9 4.3 0.6 0.7 2.7 1.5 4.6 1.8 1.9 0.3 4.6 0.1 6-0.5 1.4-0.6 3.1-2.2 3.8-3.6 0.7-1.4 1.2-3.2 1.2-4 0-0.9-0.6-2.8-1.4-4.3-0.7-1.5-2.5-3.3-4-4-1.4-0.7-3.1-1.2-3.8-1.2-0.7 0-2.7 0.9-4.5 2zm0.6 5.5c0.8-1.5 2.3-2.6 3.5-2.6 1.2 0 2.7 0.6 3.4 1.3 0.7 0.7 1.3 2.3 1.2 3.5 0 1.4-0.9 2.7-2.5 3.5-2.2 1.1-2.8 1-4.8-1-2-2-2-2.4-0.8-4.7zm-628.4 16.3c-1.1 0.5-2.9 2.5-4 4.5l-2 3.7c3.1 5.4 5.1 7.5 6.5 8.1 1.4 0.6 3.8 0.8 5.3 0.5 1.5-0.4 3.6-1.5 4.7-2.6 1.3-1.3 2-3.4 2.1-5.8 0-2.1-0.8-4.7-1.8-6-1-1.4-3.2-2.5-5.3-2.8-1.9-0.2-4.4 0-5.5 0.4zm1.6 4.7c2-1.3 2.6-1.3 4.4-0.2 1.1 0.8 2.1 2.1 2.3 3 0.1 0.9-0.3 2.4-1 3.2-0.7 0.8-2.2 1.5-3.3 1.5-1.1 0-2.5-0.6-3.2-1.3-0.7-0.7-1.4-2-1.4-2.9-0.1-1 0.9-2.4 2.2-3.3zm626.7-4.9c-0.9 0.3-2.3 1.8-3.2 3.4-0.9 1.6-1.6 3.9-1.6 5 0 1.1 0.5 3 1 4.2 0.6 1.2 2.2 2.8 3.5 3.5 1.4 0.7 3.2 1.3 4 1.3 0.8 0 2.7-0.6 4.1-1.3 1.5-0.7 3.3-2.5 4-4 0.8-1.5 1.4-3.6 1.4-4.7 0-1.1-1-3.2-2.2-4.6-1.4-1.5-3.6-2.7-5.8-2.9-1.9-0.2-4.2-0.2-5.2 0.1zm2.5 4c0.7-0.3 1.3-0.5 1.5-0.6 0.1 0 1.1 0.4 2.2 1 1.1 0.5 2 2 2 3.2 0.1 1.2-0.5 2.8-1.2 3.5-0.6 0.7-2.2 1.3-3.5 1.3-1.3 0-2.7-0.9-3.3-2q-1-2 0-4c0.6-1 1.6-2.1 2.3-2.4zm-633 20.6c-1.1 1.2-2.3 3.3-2.7 4.5-0.3 1.2 0.1 3.6 0.9 5.3 0.8 1.6 2.4 3.4 3.5 4 1.1 0.5 3.3 1 4.8 1 1.5 0 4-0.9 5.5-2 2.2-1.7 2.7-2.8 2.8-6.3 0-3.1-0.6-4.8-2.3-6.5-1.6-1.5-3.5-2.2-6.4-2.2-2.9 0-4.6 0.6-6.1 2.2zm3.2 3.3c0.9-0.8 2.3-1.5 3.1-1.5 0.8 0 2.1 0.6 2.9 1.5 0.8 0.8 1.5 1.9 1.5 2.5 0 0.5-0.4 1.9-1 3-0.6 1.2-2 2-3.5 2-1.5 0-2.9-0.8-3.5-2-0.5-1.1-1-2.5-1-3-0.1-0.5 0.6-1.6 1.5-2.5zm624.9-3.4q-1.9 2.1-1.9 6.5c0 3.6 0.5 4.9 2.5 6.4 1.4 1 4.1 1.9 6 2 2.2 0 4.4-0.8 5.8-2 1.2-1.1 2.5-3.2 2.9-4.6 0.5-1.5 0.2-3.7-0.7-5.6-0.8-1.7-2.3-3.5-3.2-4-1-0.5-3.5-0.8-5.6-0.8-2.7 0-4.5 0.6-5.8 2.1zm3 3.9c1.1-1.1 2.6-2.1 3.5-2.1 0.9 0 2.2 0.5 2.9 1.3 0.7 0.7 1.2 2.3 1 3.7-0.1 1.3-1.1 2.8-2 3.5-1.3 0.8-2.2 0.8-3.5-0.1-1-0.6-2.2-1.8-2.8-2.7-0.7-1.1-0.5-2.1 0.9-3.6zm-631 18.7c-1.4 1.5-2.7 3.7-3 4.8-0.3 1.1 0.2 3.4 1 5.2 0.9 1.8 2.5 3.7 3.6 4.3 1.1 0.5 3.4 1 5.1 1 1.9 0 3.9-1 5.5-2.5 1.7-1.8 2.4-3.7 2.4-6.3 0-2.6-0.7-4.6-2.5-6.5-1.8-2-3.4-2.7-6-2.7-2.6 0-4.2 0.7-6.1 2.7zm2.7 3.8c0.6-0.9 2.2-1.5 3.5-1.5 1.6 0 2.9 0.8 3.7 2.4 1 2 1 2.7-0.3 4.1-0.8 0.8-2.7 1.5-4.2 1.5-2.1 0-2.9-0.6-3.3-2.5-0.3-1.4 0-3.2 0.6-4zm625.9-3.6c-1.5 1.6-2.8 3.9-2.9 5.2 0 1.3 0.2 3.3 0.5 4.4 0.2 1.1 1.8 2.7 3.5 3.7 1.6 1 4 1.8 5.4 1.8 1.5 0 3.8-1.3 5.5-3 1.7-1.7 3-3.9 3-5 0-1.1-0.7-3.4-1.5-5-0.8-1.7-2.4-3.5-3.5-4-1.1-0.6-3.1-1-4.6-1-1.5 0-3.7 1.1-5.4 2.9zm2.1 4.1c0.5-1.1 2-2 3.2-2 1.2 0 2.8 0.3 3.5 0.7 0.8 0.4 1.2 2.1 1 3.8-0.2 2.5-0.7 3-3.5 3.2-2.4 0.2-3.5-0.3-4.3-1.7q-1-2 0.1-4zm-630.4 18c-1.5 1.1-2.9 3.3-3.2 5-0.3 1.8 0.2 4.1 1.3 5.9 0.9 1.7 2.7 3.5 4 4 1.2 0.6 3.1 1.1 4.2 1.1 1.1 0 3.4-1.2 5-2.5 2.5-2.1 3-3.3 3-7 0-3.8-0.4-4.9-2.7-6.6-1.5-1.1-4.2-2-5.9-2-1.7 0-4.3 1-5.7 2.1zm4 2.7c0.8-0.2 2.4-0.1 3.5 0.2 1 0.3 2.1 1.3 2.4 2.3 0.2 1 0 2.7-0.6 3.8-0.5 1.1-2 2-3.2 2-1.3 0-2.8-0.7-3.5-1.5-0.7-0.8-1-2.6-0.7-4 0.2-1.3 1.2-2.6 2.1-2.8zm624.3-2.8c-2 1.6-2.5 2.8-2.5 6.6 0 3.8 0.5 5.1 2.8 7 1.5 1.4 3.6 2.5 4.7 2.5 1.1 0 3.2-0.6 4.6-1.3 1.5-0.7 3.3-2.5 4-4 0.8-1.5 1.4-3.6 1.4-4.7 0-1.1-1.1-3.4-2.5-5-1.9-2.4-3.3-3-6.2-3-2.2 0-4.9 0.8-6.3 1.9zm2.9 3.9c1.5-1.2 2.8-1.5 4.4-0.9 1.3 0.4 2.4 1.8 2.5 3.2 0.2 1.3-0.3 2.9-1.2 3.6-0.9 0.7-2.7 1-4.1 0.8-1.5-0.3-2.7-1.5-3.1-2.8-0.4-1.6 0-2.7 1.5-3.9zm-631.5 19.7c-2.8 2.9-3.3 4-2.9 6.7 0.3 1.8 1.6 4.3 3 5.5 1.5 1.3 3.9 2.3 5.8 2.3 1.8 0 4.5-0.9 6-2 2.3-1.7 2.7-2.8 2.7-6.5 0-3.8-0.5-4.9-3-7-1.6-1.4-4.1-2.5-5.6-2.5-1.6 0-3.8 1.2-6 3.5zm2.7 3c0.6-0.9 2.2-1.5 3.5-1.5 1.4 0 2.8 0.8 3.4 2 0.6 1.1 0.8 2.9 0.5 4-0.3 1.1-1.3 2.2-2.2 2.5-1 0.3-2.6 0.3-3.5 0-1-0.3-2-1.7-2.3-3-0.3-1.4 0-3.2 0.6-4zm625.7-3.3c-2.8 2.9-3.1 3.7-2.5 7.3 0.4 2.4 1.5 4.6 2.9 5.7 1.3 0.9 4 1.7 6.1 1.7 2.9 0.1 4.3-0.6 6.2-2.9 1.4-1.7 2.5-3.9 2.5-5 0-1.1-0.5-3.2-1.2-4.7-0.7-1.4-2.5-3.2-4-4-1.5-0.7-3.7-1.3-4.9-1.3-1.1 0-3.4 1.4-5.1 3.2zm2.2 3.7c0.6-1.1 2.1-2 3.3-2 1.2 0 2.8 0.6 3.5 1.3 0.7 0.7 1.3 2.3 1.2 3.5 0 1.2-0.9 2.7-2 3.3-1.4 0.7-2.7 0.5-4.5-0.5-1.4-0.9-2.5-2-2.6-2.6 0-0.6 0.4-1.9 1.1-3zm-630.3 18.6c-1.5 1.3-3 3.5-3.3 4.7-0.4 1.4 0.1 3.6 1.4 5.8 1.1 1.9 3.2 3.8 4.6 4.2 1.5 0.4 4 0.4 5.7 0 1.7-0.4 3.7-1.8 4.5-3 0.8-1.2 1.4-3.8 1.4-5.7 0-2.6-0.7-4.2-2.7-6.1-1.8-1.6-3.9-2.5-5.9-2.5-1.9 0-4.1 1-5.7 2.6zm1.9 4.9c0.5-2.2 1.1-2.5 3.7-2.3 1.6 0.2 3.5 1.1 4.1 2.1 0.8 1.3 0.8 2.2 0 3.5-0.6 1-2.2 1.9-3.5 2.1-1.3 0.2-2.9-0.4-3.6-1.3-0.7-0.8-1-2.7-0.7-4.1zm626.8-5.6c-1.1 0.9-2.4 3.3-2.9 5.2-0.6 2.6-0.4 4.2 0.9 6.2 0.9 1.5 2.9 3.2 4.4 3.8 1.5 0.6 4 0.8 5.5 0.5 1.6-0.3 3.5-1.8 4.7-3.8 1.1-1.8 2-4.3 2-5.5 0-1.2-1.3-3.6-3-5.2-2.1-2.2-3.9-3-6.2-3-1.8 0-4.2 0.8-5.4 1.8zm1.7 5.1c0.8-1.5 1.9-2 4.3-1.8 2.7 0.3 3.2 0.8 3.4 3.4 0.2 1.7-0.2 3.3-1 3.7-0.7 0.4-2.3 0.7-3.5 0.7-1.3 0-2.7-0.8-3.3-1.9-0.7-1.4-0.6-2.7 0.1-4.1zm-629.2 17.1c-0.9 0.6-2.3 2.4-3.2 4-0.9 1.6-1.7 3.6-1.7 4.5 0 0.8 1.4 2.8 3 4.5 2.1 2 4 3 6.3 3 1.8 0 4.5-0.9 6-2 2.3-1.7 2.7-2.8 2.7-6.5 0-3.8-0.4-4.9-2.7-6.6-1.5-1.1-4.1-2-5.8-1.9-1.6 0-3.7 0.5-4.6 1zm1 5.2c0.8-1.4 2.1-2.2 3.7-2.2 1.5 0 2.8 0.8 3.5 2.2 0.8 1.6 0.8 2.9 0 4.5-0.7 1.4-2 2.3-3.6 2.3-1.6 0-2.9-0.9-3.6-2.3-0.8-1.6-0.8-2.8 0-4.5zm626-4.3c-1.9 1.5-2.4 2.8-2.4 6.6 0 3.8 0.5 5 2.5 6.6 1.4 1.1 4 1.9 5.8 1.9 1.8 0 4-0.4 5-0.9 0.9-0.5 2.3-2.2 3.1-3.8 0.7-1.5 1.1-4.1 0.7-5.6-0.3-1.5-1.5-3.6-2.6-4.7-1.3-1.4-3.3-2-5.9-2-2.3 0-4.8 0.7-6.2 1.9zm2.5 4.1c1.1-1.1 2.6-2.1 3.5-2.1 0.9 0 2.2 0.5 2.9 1.3 0.7 0.7 1.2 2.3 1 3.7-0.1 1.3-1.1 2.8-2 3.5-1.3 0.8-2.2 0.8-3.5-0.1-1-0.6-2.2-1.8-2.8-2.7-0.7-1.1-0.5-2.1 0.9-3.6z"/></svg>